<svg width="101" height="104" viewBox="0 0 101 104" fill="none" xmlns="http://www.w3.org/2000/svg">
<g id="icon-btoc.svg" clip-path="url(#clip0_1_3684)">
<path id="Vector" d="M76.0074 47.9292V76.5274" stroke="#475965" stroke-width="1.93624" stroke-linecap="round" stroke-linejoin="round"/>
<path id="Vector_2" d="M36.8189 37.4487V42.9938C36.8096 44.6568 36.1429 46.2486 34.9645 47.4219C33.786 48.5953 32.1914 49.255 30.5284 49.2571H29.4103C27.7468 49.2566 26.1512 48.5975 24.9723 47.4238C23.7935 46.2501 23.1274 44.6573 23.1198 42.9938V37.4487" stroke="#475965" stroke-width="1.93624" stroke-linecap="round" stroke-linejoin="round"/>
<path id="Vector_3" d="M50.5274 38.0298V42.984C50.518 44.647 49.8514 46.2388 48.673 47.4121C47.4945 48.5854 45.8999 49.2451 44.2369 49.2473H43.1188C41.4553 49.2468 39.8597 48.5877 38.6808 47.4139C37.502 46.2402 36.8359 44.6475 36.8282 42.984V38.0298" fill="white"/>
<path id="Vector_4" d="M77.9166 37.4487V42.9938C77.9072 44.6568 77.2406 46.2486 76.0621 47.4219C74.8837 48.5953 73.289 49.255 71.626 49.2571H70.5079C68.8444 49.2566 67.2488 48.5975 66.07 47.4238C64.8912 46.2501 64.2251 44.6573 64.2174 42.9938V38.0396" fill="white"/>
<path id="Vector_5" d="M64.2081 37.4487V42.9938C64.1987 44.6568 63.5321 46.2486 62.3536 47.4219C61.1752 48.5953 59.5805 49.255 57.9175 49.2571H56.7994C55.1359 49.2566 53.5403 48.5975 52.3615 47.4238C51.1827 46.2501 50.5166 44.6573 50.5089 42.9938V37.4487" stroke="#475965" stroke-width="1.93624" stroke-linecap="round" stroke-linejoin="round"/>
<path id="Vector_6" d="M25.2653 76.5274V48.2837" stroke="#475965" stroke-width="1.93624" stroke-linecap="round" stroke-linejoin="round"/>
<path id="Vector_7" d="M64.2081 37.4487V42.9938C64.1987 44.6568 63.5321 46.2486 62.3536 47.4219C61.1752 48.5953 59.5805 49.255 57.9175 49.2571H56.7994C55.1359 49.2566 53.5403 48.5975 52.3615 47.4238C51.1827 46.2501 50.5166 44.6573 50.5089 42.9938V37.4487" stroke="#475965" stroke-width="1.93624" stroke-linecap="round" stroke-linejoin="round"/>
<path id="Vector_8" d="M54.1907 57.7018H67.7717V69.3738H54.1907V57.7018Z" stroke="#719D37" stroke-width="1.93624" stroke-linecap="round" stroke-linejoin="round"/>
<g id="Vector_9">
<path d="M32.8922 80.0273V57.8286H44.4915V80.0273" fill="white"/>
<path d="M32.8922 80.0273V57.8286H44.4915V80.0273" stroke="#475965" stroke-width="1.93624" stroke-linecap="round" stroke-linejoin="round"/>
</g>
<path id="Vector_10" d="M59.7267 23.5405L65.0354 38.3396H78.2165L67.1899 23.5405H59.7267Z" fill="white"/>
<path id="Vector_11" d="M40.9733 24.4497L36.819 37.4489L50.0545 37.6943V24.4497" fill="white"/>
<g id="Group">
<path id="Vector_12" d="M22.7834 37.6942H78.2073L68.6351 24.2859C68.4701 24.0565 68.2531 23.8694 68.0019 23.7398C67.7507 23.6103 67.4724 23.542 67.1897 23.5405H34.4827C34.2106 23.5399 33.942 23.6019 33.6976 23.7217C33.4533 23.8415 33.2398 24.0159 33.0737 24.2314L22.7834 37.6851V37.6942Z" stroke="#475965" stroke-width="1.93624" stroke-linecap="round" stroke-linejoin="round"/>
<g id="Vector_13">
<path d="M36.8098 37.067L41.7641 23.5405L36.8098 37.067Z" fill="white"/>
<path d="M36.8098 37.067L41.7641 23.5405" stroke="#475965" stroke-width="1.93624" stroke-linecap="round" stroke-linejoin="round"/>
</g>
<path id="Vector_14" d="M64.1172 37.067L59.163 23.5405" stroke="#475965" stroke-width="1.93624" stroke-linecap="round" stroke-linejoin="round"/>
<g id="Vector_15">
<path d="M50.4999 23.5405V37.067V23.5405Z" fill="white"/>
<path d="M50.4999 23.5405V37.067" stroke="#475965" stroke-width="1.93624" stroke-linecap="round" stroke-linejoin="round"/>
</g>
<path id="Vector_16" d="M36.8189 37.4487V42.9938C36.8096 44.6568 36.1429 46.2486 34.9645 47.4219C33.786 48.5953 32.1914 49.255 30.5284 49.2571H29.4103C27.7468 49.2566 26.1512 48.5975 24.9723 47.4238C23.7935 46.2501 23.1274 44.6573 23.1198 42.9938V37.4487" stroke="#475965" stroke-width="1.93624" stroke-linecap="round" stroke-linejoin="round"/>
<path id="Vector_17" d="M50.5272 38.0305V42.9848C50.5178 44.6477 49.8512 46.2395 48.6727 47.4128C47.4943 48.5862 45.8996 49.2459 44.2366 49.248H43.1185C41.455 49.2475 39.8594 48.5884 38.6806 47.4147C37.5018 46.241 36.8357 44.6482 36.828 42.9848V38.0305" stroke="#475965" stroke-width="1.93624" stroke-linecap="round" stroke-linejoin="round"/>
<path id="Vector_18" d="M77.9164 38.2124V42.9939C77.907 44.6569 77.2404 46.2487 76.062 47.422C74.8835 48.5953 73.2888 49.255 71.6259 49.2572H70.5078C68.8443 49.2567 67.2486 48.5976 66.0698 47.4239C64.891 46.2501 64.2249 44.6574 64.2172 42.9939V38.2124" stroke="#475965" stroke-width="1.93624" stroke-linecap="round" stroke-linejoin="round"/>
<path id="Vector_19" d="M21.4108 80.5188H79.589" stroke="#475965" stroke-width="1.93624" stroke-linecap="round" stroke-linejoin="round"/>
</g>
</g>
<defs>
<clipPath id="clip0_1_3684">
<rect width="99.9939" height="103.63" fill="white" transform="translate(0.503052 0.214355)"/>
</clipPath>
</defs>
</svg>
