<svg width="81" height="84" viewBox="0 0 81 84" fill="none" xmlns="http://www.w3.org/2000/svg">
<g id="icon-newly.svg" clip-path="url(#clip0_1_3771)">
<path id="Vector" d="M58.5177 20.5523H66.1003C66.5904 20.553 67.0602 20.7479 67.407 21.0942C67.7537 21.4406 67.949 21.9102 67.9502 22.4003V63.4857C67.9502 63.9766 67.7554 64.4474 67.4086 64.7948C67.0617 65.1421 66.5912 65.3377 66.1003 65.3384H15.8067C15.3163 65.3377 14.8462 65.1425 14.4994 64.7958C14.1527 64.449 13.9575 63.9789 13.9568 63.4885V22.4003C13.9575 21.9099 14.1527 21.4398 14.4994 21.0931C14.8462 20.7463 15.3163 20.5511 15.8067 20.5504H53.3017" stroke="#475965" stroke-width="1.95842" stroke-linecap="round" stroke-linejoin="round"/>
<path id="Vector_2" d="M13.952 30.6196H67.9427" stroke="#475965" stroke-width="1.95842" stroke-linecap="round" stroke-linejoin="round"/>
<g id="Group">
<path id="Vector_3" d="M19 27.4646C19.6236 27.4646 20.1291 26.9591 20.1291 26.3355C20.1291 25.7119 19.6236 25.2064 19 25.2064C18.3764 25.2064 17.8709 25.7119 17.8709 26.3355C17.8709 26.9591 18.3764 27.4646 19 27.4646Z" fill="#475965"/>
<path id="Vector_4" d="M24.2445 27.4646C24.8681 27.4646 25.3736 26.9591 25.3736 26.3355C25.3736 25.7119 24.8681 25.2064 24.2445 25.2064C23.6209 25.2064 23.1154 25.7119 23.1154 26.3355C23.1154 26.9591 23.6209 27.4646 24.2445 27.4646Z" fill="#475965"/>
<path id="Vector_5" d="M29.4817 27.4646C30.1053 27.4646 30.6108 26.9591 30.6108 26.3355C30.6108 25.7119 30.1053 25.2064 29.4817 25.2064C28.8581 25.2064 28.3526 25.7119 28.3526 26.3355C28.3526 26.9591 28.8581 27.4646 29.4817 27.4646Z" fill="#475965"/>
</g>
<path id="Vector_6" d="M29.7446 38.3766H31.9659C32.1511 38.3774 32.3305 38.4402 32.4757 38.5551C32.6209 38.6699 32.7234 38.8301 32.7668 39.0101L35.8782 52.3889C35.9206 52.5762 36.0258 52.7434 36.1763 52.8627C36.3268 52.9819 36.5136 53.0461 36.7057 53.0445H46.1199" stroke="#719D37" stroke-width="2.60203" stroke-linecap="round" stroke-linejoin="round"/>
<path id="Vector_7" d="M35.733 49.6526H46.2946C46.4771 49.6527 46.6543 49.5919 46.7983 49.4798C46.9422 49.3677 47.0445 49.2107 47.089 49.0338L49.0557 41.9936C49.0792 41.9004 49.0811 41.8032 49.0614 41.7092C49.0416 41.6152 49.0008 41.5269 48.9418 41.451C48.8829 41.3752 48.8075 41.3137 48.7213 41.2714C48.6351 41.229 48.5403 41.2068 48.4443 41.2065H33.6422" stroke="#719D37" stroke-width="2.60203" stroke-linecap="round" stroke-linejoin="round"/>
<path id="Vector_8" d="M38.1143 57.5203C38.8465 57.5203 39.4401 56.9267 39.4401 56.1945C39.4401 55.4623 38.8465 54.8687 38.1143 54.8687C37.3821 54.8687 36.7885 55.4623 36.7885 56.1945C36.7885 56.9267 37.3821 57.5203 38.1143 57.5203Z" fill="#719D37"/>
<path id="Vector_9" d="M44.5826 57.5203C45.3149 57.5203 45.9085 56.9267 45.9085 56.1945C45.9085 55.4623 45.3149 54.8687 44.5826 54.8687C43.8504 54.8687 43.2568 55.4623 43.2568 56.1945C43.2568 56.9267 43.8504 57.5203 44.5826 57.5203Z" fill="#719D37"/>
</g>
<defs>
<clipPath id="clip0_1_3771">
<rect width="79.9917" height="82.75" fill="white" transform="translate(0.884155 0.964355)"/>
</clipPath>
</defs>
</svg>
