<svg width="81" height="84" viewBox="0 0 81 84" fill="none" xmlns="http://www.w3.org/2000/svg">
<g id="icon-replace.svg" clip-path="url(#clip0_1_3800)">
<g id="Group">
<g id="Group_2">
<g id="Vector">
<path d="M18.57 37.1569C13.0625 37.6267 8.96177 39.4187 8.96177 41.5619C8.9606 41.6031 8.96306 41.6444 8.96913 41.6851C8.96913 41.7283 8.96177 41.7651 8.96177 41.8083C8.9606 41.8495 8.96306 41.8908 8.96913 41.9315C8.96913 41.9748 8.96177 42.0115 8.96177 42.0547C8.9606 42.0959 8.96306 42.1372 8.96913 42.1779C8.96913 42.2212 8.96177 42.2579 8.96177 42.3011C8.9606 42.3424 8.96306 42.3836 8.96913 42.4244C8.96913 42.4676 8.96177 42.5043 8.96177 42.5476C8.9606 42.5888 8.96306 42.63 8.96913 42.6708C8.96913 42.714 8.96177 42.7508 8.96177 42.794C8.9606 42.8352 8.96306 42.8764 8.96913 42.9172C8.96913 42.9604 8.96177 42.9972 8.96177 43.0404C8.9606 43.0816 8.96306 43.1228 8.96913 43.1636C8.96913 43.2068 8.96177 43.2436 8.96177 43.2868C8.9606 43.328 8.96306 43.3692 8.96913 43.41C8.96913 43.4532 8.96177 43.49 8.96177 43.5332C8.9606 43.5744 8.96306 43.6156 8.96913 43.6564C8.96913 43.6996 8.96177 43.7364 8.96177 43.7796C8.9606 43.8208 8.96306 43.862 8.96913 43.9028C8.96913 43.946 8.96177 43.9828 8.96177 44.026C8.9606 44.0672 8.96306 44.1085 8.96913 44.1492C8.96913 44.1924 8.96177 44.2292 8.96177 44.2724C8.9606 44.3136 8.96306 44.3549 8.96913 44.3956C8.96913 44.4389 8.96177 44.4756 8.96177 44.5189C8.9606 44.5601 8.96306 44.6013 8.96913 44.6421C8.96913 44.6853 8.96177 44.722 8.96177 44.7653C8.9606 44.8065 8.96306 44.8477 8.96913 44.8885C8.96913 44.9317 8.96177 44.9685 8.96177 45.0117C8.9606 45.0529 8.96306 45.0941 8.96913 45.1349C8.96913 45.1781 8.96177 45.2149 8.96177 45.2581C8.9606 45.2993 8.96306 45.3405 8.96913 45.3813C8.96913 45.4245 8.96177 45.4613 8.96177 45.5045C8.9606 45.5457 8.96306 45.5869 8.96913 45.6277C8.96913 45.6709 8.96177 45.7077 8.96177 45.7509C8.9606 45.7921 8.96306 45.8333 8.96913 45.8741C8.96913 45.9173 8.96177 45.9541 8.96177 45.9973C8.9606 46.0385 8.96306 46.0798 8.96913 46.1205C8.96913 46.1637 8.96177 46.2005 8.96177 46.2437C8.9606 46.2849 8.96306 46.3262 8.96913 46.3669C8.96913 46.4101 8.96177 46.4469 8.96177 46.4901C8.9606 46.5313 8.96306 46.5726 8.96913 46.6133C8.96913 46.6566 8.96177 46.6933 8.96177 46.7366C8.9606 46.7778 8.96306 46.819 8.96913 46.8598C8.96913 46.903 8.96177 46.9397 8.96177 46.983C8.9606 47.0242 8.96306 47.0654 8.96913 47.1062C8.96913 47.1494 8.96177 47.1862 8.96177 47.2294C8.9606 47.2706 8.96306 47.3118 8.96913 47.3526C8.96913 47.3958 8.96177 47.4326 8.96177 47.4758C8.9606 47.517 8.96306 47.5582 8.96913 47.599C8.96913 47.6422 8.96177 47.679 8.96177 47.7222C8.9606 47.7634 8.96306 47.8046 8.96913 47.8454C8.96913 47.8886 8.96177 47.9254 8.96177 47.9686C8.9606 48.0098 8.96306 48.051 8.96913 48.0918C8.96913 48.135 8.96177 48.1718 8.96177 48.215C8.9606 48.2562 8.96306 48.2975 8.96913 48.3382C8.96913 48.3814 8.96177 48.4182 8.96177 48.4614C8.9606 48.5026 8.96306 48.5439 8.96913 48.5846C8.96913 48.6278 8.96177 48.6646 8.96177 48.7078C8.9606 48.749 8.96306 48.7903 8.96913 48.831C8.96913 48.8743 8.96177 48.911 8.96177 48.9542C8.9606 48.9955 8.96306 49.0367 8.96913 49.0775C8.96913 49.1207 8.96177 49.1574 8.96177 49.2007C8.9606 49.2419 8.96306 49.2831 8.96913 49.3239C8.96913 49.3671 8.96177 49.4039 8.96177 49.4471C8.9606 49.4883 8.96306 49.5295 8.96913 49.5703C8.96913 49.6135 8.96177 49.6503 8.96177 49.6935C8.9606 49.7347 8.96306 49.7759 8.96913 49.8167C8.96913 49.8599 8.96177 49.8967 8.96177 49.9399C8.9606 49.9811 8.96306 50.0223 8.96913 50.0631C8.96913 50.1063 8.96177 50.1431 8.96177 50.1863C8.9606 50.2275 8.96306 50.2687 8.96913 50.3095C8.96913 50.3527 8.96177 50.3895 8.96177 50.4327C8.9606 50.4739 8.96306 50.5152 8.96913 50.5559C8.96913 50.5991 8.96177 50.6359 8.96177 50.6791C8.9606 50.7203 8.96306 50.7616 8.96913 50.8023C8.96913 50.8455 8.96177 50.8823 8.96177 50.9255C8.9606 50.9667 8.96306 51.008 8.96913 51.0487C8.96913 51.092 8.96177 51.1287 8.96177 51.1719C8.9606 51.2132 8.96306 51.2544 8.96913 51.2952C8.96913 51.3384 8.96177 51.3752 8.96177 51.4184C8.9606 51.4596 8.96306 51.5008 8.96913 51.5416C8.96913 51.5848 8.96177 51.6216 8.96177 51.6648C8.9606 51.706 8.96306 51.7472 8.96913 51.788C8.96913 51.8312 8.96177 51.868 8.96177 51.9112C8.9606 51.9524 8.96306 51.9936 8.96913 52.0344C8.96913 52.0776 8.96177 52.1144 8.96177 52.1576C8.9606 52.1988 8.96306 52.24 8.96913 52.2808C8.96913 52.324 8.96177 52.3608 8.96177 52.404C8.9606 52.4452 8.96306 52.4864 8.96913 52.5272C8.96913 52.5704 8.96177 52.6072 8.96177 52.6504C8.9606 52.6916 8.96306 52.7329 8.96913 52.7736C8.96913 52.8168 8.96177 52.8536 8.96177 52.8968C8.9606 52.938 8.96306 52.9793 8.96913 53.02C8.96913 53.0632 8.96177 53.1 8.96177 53.1432C8.9606 53.1844 8.96306 53.2257 8.96913 53.2664C8.96913 53.3097 8.96177 53.3464 8.96177 53.3897C8.9606 53.4309 8.96306 53.4721 8.96913 53.5129C8.96913 53.5561 8.96177 53.5928 8.96177 53.6361C8.9606 53.6773 8.96306 53.7185 8.96913 53.7593C8.96913 53.8025 8.96177 53.8393 8.96177 53.8825C8.9606 53.9237 8.96306 53.9649 8.96913 54.0057C8.96913 54.0489 8.96177 54.0857 8.96177 54.1289C8.9606 54.1701 8.96306 54.2113 8.96913 54.2521C8.96913 54.2953 8.96177 54.3321 8.96177 54.3753C8.9606 54.4165 8.96306 54.4577 8.96913 54.4985C8.96913 54.5417 8.96177 54.5785 8.96177 54.6217C8.9606 54.6629 8.96306 54.7041 8.96913 54.7449C8.96913 54.7881 8.96177 54.8249 8.96177 54.8681C8.9606 54.9093 8.96306 54.9505 8.96913 54.9913C8.96913 55.0345 8.96177 55.0713 8.96177 55.1145C8.9606 55.1557 8.96306 55.197 8.96913 55.2377C8.96913 55.281 8.96177 55.3177 8.96177 55.3609C8.9606 55.4021 8.96306 55.4434 8.96913 55.4841C8.96913 55.5274 8.96177 55.5641 8.96177 55.6074C8.9606 55.6486 8.96306 55.6898 8.96913 55.7306C8.96913 55.7738 8.96177 55.8105 8.96177 55.8538C8.9606 55.895 8.96306 55.9362 8.96913 55.977C8.96913 56.0202 8.96177 56.057 8.96177 56.1002C8.9606 56.1414 8.96306 56.1826 8.96913 56.2234C8.96913 56.2666 8.96177 56.3034 8.96177 56.3466C8.9606 56.3878 8.96306 56.429 8.96913 56.4698C8.96913 56.513 8.96177 56.5498 8.96177 56.593C8.9606 56.6342 8.96306 56.6754 8.96913 56.7162C8.96913 56.7594 8.96177 56.7962 8.96177 56.8394C8.9606 56.8806 8.96306 56.9218 8.96913 56.9626C8.96913 57.0058 8.96177 57.0426 8.96177 57.0858C8.9606 57.127 8.96306 57.1682 8.96913 57.209C8.96913 57.2522 8.96177 57.289 8.96177 57.3322C8.9606 57.3734 8.96306 57.4147 8.96913 57.4554C8.96913 57.4986 8.96177 57.5354 8.96177 57.5786C8.9606 57.6198 8.96306 57.6611 8.96913 57.7018C8.96913 57.7451 8.96177 57.7818 8.96177 57.825C8.9606 57.8663 8.96306 57.9075 8.96913 57.9483C8.96913 57.9915 8.96177 58.0283 8.96177 58.0715C8.9606 58.1127 8.96306 58.1539 8.96913 58.1947C8.96913 58.2379 8.96177 58.2747 8.96177 58.3179C8.9606 58.3591 8.96306 58.4003 8.96913 58.4411C8.96913 58.4843 8.96177 58.5211 8.96177 58.5643C8.9606 58.6055 8.96306 58.6467 8.96913 58.6875C8.96913 58.7307 8.96177 58.7675 8.96177 58.8107C8.9606 58.8519 8.96306 58.8931 8.96913 58.9339C8.96913 58.9771 8.96177 59.0139 8.96177 59.0571C8.9606 59.0983 8.96306 59.1395 8.96913 59.1803C8.96913 59.2235 8.96177 59.2603 8.96177 59.3035C8.9606 59.3447 8.96306 59.386 8.96913 59.4267C8.96913 59.4699 8.96177 59.5067 8.96177 59.5499C8.9606 59.5911 8.96306 59.6324 8.96913 59.6731C8.96913 59.7163 8.96177 59.7531 8.96177 59.7963C8.9606 59.8375 8.96306 59.8788 8.96913 59.9195C8.96913 59.9628 8.96177 59.9995 8.96177 60.0428C8.9606 60.084 8.96306 60.1252 8.96913 60.166C8.96913 60.2092 8.96177 60.2459 8.96177 60.2892C8.9606 60.3304 8.96306 60.3716 8.96913 60.4124C8.96913 60.4556 8.96177 60.4924 8.96177 60.5356C8.9606 60.5768 8.96306 60.618 8.96913 60.6588C8.96913 60.702 8.96177 60.7388 8.96177 60.782C8.9606 60.8232 8.96306 60.8644 8.96913 60.9052C8.96913 60.9484 8.96177 60.9852 8.96177 61.0284C8.9606 61.0696 8.96306 61.1108 8.96913 61.1516C8.96913 61.1948 8.96177 61.2316 8.96177 61.2748C8.9606 61.316 8.96306 61.3572 8.96913 61.398C8.96913 61.4412 8.96177 61.478 8.96177 61.5212C8.9606 61.5624 8.96306 61.6036 8.96913 61.6444C8.96913 61.6876 8.96177 61.7244 8.96177 61.7676C8.9606 61.8088 8.96306 61.8501 8.96913 61.8908C8.96913 61.934 8.96177 61.9708 8.96177 62.014C8.96177 64.5168 14.5529 66.5414 21.4524 66.5414C28.3519 66.5414 33.9431 64.5186 33.9431 62.014C33.9442 61.9728 33.9418 61.9316 33.9357 61.8908C33.9357 61.8476 33.9431 61.8108 33.9431 61.7676C33.9442 61.7264 33.9418 61.6852 33.9357 61.6444C33.9357 61.6012 33.9431 61.5644 33.9431 61.5212C33.9442 61.48 33.9418 61.4388 33.9357 61.398C33.9357 61.3548 33.9431 61.318 33.9431 61.2748C33.9442 61.2336 33.9418 61.1924 33.9357 61.1516C33.9357 61.1084 33.9431 61.0716 33.9431 61.0284C33.9442 60.9872 33.9418 60.946 33.9357 60.9052C33.9357 60.862 33.9431 60.8252 33.9431 60.782C33.9442 60.7408 33.9418 60.6995 33.9357 60.6588C33.9357 60.6156 33.9431 60.5788 33.9431 60.5356C33.9442 60.4944 33.9418 60.4531 33.9357 60.4124C33.9357 60.3692 33.9431 60.3324 33.9431 60.2892C33.9442 60.248 33.9418 60.2067 33.9357 60.166C33.9357 60.1227 33.9431 60.086 33.9431 60.0428C33.9442 60.0015 33.9418 59.9603 33.9357 59.9195C33.9357 59.8763 33.9431 59.8396 33.9431 59.7963C33.9442 59.7551 33.9418 59.7139 33.9357 59.6731C33.9357 59.6299 33.9431 59.5931 33.9431 59.5499C33.9442 59.5087 33.9418 59.4675 33.9357 59.4267C33.9357 59.3835 33.9431 59.3467 33.9431 59.3035C33.9442 59.2623 33.9418 59.2211 33.9357 59.1803C33.9357 59.1371 33.9431 59.1003 33.9431 59.0571C33.9442 59.0159 33.9418 58.9747 33.9357 58.9339C33.9357 58.8907 33.9431 58.8539 33.9431 58.8107C33.9442 58.7695 33.9418 58.7283 33.9357 58.6875C33.9357 58.6443 33.9431 58.6075 33.9431 58.5643C33.9442 58.5231 33.9418 58.4819 33.9357 58.4411C33.9357 58.3979 33.9431 58.3611 33.9431 58.3179C33.9442 58.2767 33.9418 58.2354 33.9357 58.1947C33.9357 58.1515 33.9431 58.1147 33.9431 58.0715C33.9442 58.0303 33.9418 57.989 33.9357 57.9483C33.9357 57.905 33.9431 57.8683 33.9431 57.825C33.9442 57.7838 33.9418 57.7426 33.9357 57.7018C33.9357 57.6586 33.9431 57.6219 33.9431 57.5786C33.9442 57.5374 33.9418 57.4962 33.9357 57.4554C33.9357 57.4122 33.9431 57.3754 33.9431 57.3322C33.9442 57.291 33.9418 57.2498 33.9357 57.209C33.9357 57.1658 33.9431 57.129 33.9431 57.0858C33.9442 57.0446 33.9418 57.0034 33.9357 56.9626C33.9357 56.9194 33.9431 56.8826 33.9431 56.8394C33.9442 56.7982 33.9418 56.757 33.9357 56.7162C33.9357 56.673 33.9431 56.6362 33.9431 56.593C33.9442 56.5518 33.9418 56.5106 33.9357 56.4698C33.9357 56.4266 33.9431 56.3898 33.9431 56.3466C33.9442 56.3054 33.9418 56.2642 33.9357 56.2234C33.9357 56.1802 33.9431 56.1434 33.9431 56.1002C33.9442 56.059 33.9418 56.0177 33.9357 55.977C33.9357 55.9338 33.9431 55.897 33.9431 55.8538C33.9442 55.8126 33.9418 55.7713 33.9357 55.7306C33.9357 55.6873 33.9431 55.6506 33.9431 55.6074C33.9442 55.5661 33.9418 55.5249 33.9357 55.4841C33.9357 55.4409 33.9431 55.4042 33.9431 55.3609C33.9442 55.3197 33.9418 55.2785 33.9357 55.2377C33.9357 55.1945 33.9431 55.1577 33.9431 55.1145C33.9442 55.0733 33.9418 55.0321 33.9357 54.9913C33.9357 54.9481 33.9431 54.9113 33.9431 54.8681C33.9442 54.8269 33.9418 54.7857 33.9357 54.7449C33.9357 54.7017 33.9431 54.6649 33.9431 54.6217C33.9442 54.5805 33.9418 54.5393 33.9357 54.4985C33.9357 54.4553 33.9431 54.4185 33.9431 54.3753C33.9442 54.3341 33.9418 54.2929 33.9357 54.2521C33.9357 54.2089 33.9431 54.1721 33.9431 54.1289C33.9442 54.0877 33.9418 54.0464 33.9357 54.0057C33.9357 53.9625 33.9431 53.9257 33.9431 53.8825C33.9442 53.8413 33.9418 53.8 33.9357 53.7593C33.9357 53.7161 33.9431 53.6793 33.9431 53.6361C33.9442 53.5949 33.9418 53.5536 33.9357 53.5129C33.9357 53.4696 33.9431 53.4329 33.9431 53.3897C33.9442 53.3484 33.9418 53.3072 33.9357 53.2664C33.9357 53.2232 33.9431 53.1865 33.9431 53.1432C33.9442 53.102 33.9418 53.0608 33.9357 53.02C33.9357 52.9768 33.9431 52.94 33.9431 52.8968C33.9457 52.848 33.9433 52.799 33.9357 52.7506C33.9357 52.7074 33.9431 52.6706 33.9431 52.6274C33.9442 52.5862 33.9418 52.545 33.9357 52.5042C33.9357 52.461 33.9431 52.4242 33.9431 52.381C33.9442 52.3398 33.9418 52.2986 33.9357 52.2578C33.9357 52.2146 33.9431 52.1778 33.9431 52.1346C33.9442 52.0934 33.9418 52.0522 33.9357 52.0114C33.9357 51.9682 33.9431 51.9314 33.9431 51.8882C33.9442 51.847 33.9418 51.8058 33.9357 51.765C33.9357 51.7218 33.9431 51.685 33.9431 51.6418C33.9442 51.6006 33.9418 51.5594 33.9357 51.5186C33.9357 51.4754 33.9431 51.4386 33.9431 51.3954C33.9442 51.3542 33.9418 51.3129 33.9357 51.2722C33.9357 51.229 33.9431 51.1922 33.9431 51.149C33.9442 51.1078 33.9418 51.0665 33.9357 51.0258C33.9357 50.9825 33.9431 50.9458 33.9431 50.9026C33.9442 50.8613 33.9418 50.8201 33.9357 50.7794C33.9357 50.7361 33.9431 50.6994 33.9431 50.6561C33.9442 50.6149 33.9418 50.5737 33.9357 50.5329C33.9357 50.4897 33.9431 50.4529 33.9431 50.4097C33.9442 50.3685 33.9418 50.3273 33.9357 50.2865C33.9357 50.2433 33.9431 50.2065 33.9431 50.1633C33.9442 50.1221 33.9418 50.0809 33.9357 50.0401C33.9357 49.9969 33.9431 49.9601 33.9431 49.9169C33.9442 49.8757 33.9418 49.8345 33.9357 49.7937C33.9357 49.7505 33.9431 49.7137 33.9431 49.6705C33.9442 49.6293 33.9418 49.5881 33.9357 49.5473C33.9357 49.5041 33.9431 49.4673 33.9431 49.4241C33.9442 49.3829 33.9418 49.3417 33.9357 49.3009C33.9357 49.2577 33.9431 49.2209 33.9431 49.1777C33.9442 49.1365 33.9418 49.0952 33.9357 49.0545C33.9357 49.0113 33.9431 48.9745 33.9431 48.9313C33.9442 48.8901 33.9418 48.8488 33.9357 48.8081C33.9357 48.7648 33.9431 48.7281 33.9431 48.6849C33.9442 48.6436 33.9418 48.6024 33.9357 48.5616C33.9357 48.5184 33.9431 48.4817 33.9431 48.4384C33.9442 48.3972 33.9418 48.356 33.9357 48.3152C33.9357 48.272 33.9431 48.2352 33.9431 48.192C33.9442 48.1508 33.9418 48.1096 33.9357 48.0688C33.9357 48.0256 33.9431 47.9888 33.9431 47.9456C33.9442 47.9044 33.9418 47.8632 33.9357 47.8224C33.9357 47.7792 33.9431 47.7424 33.9431 47.6992C33.9442 47.658 33.9418 47.6168 33.9357 47.576C33.9357 47.5328 33.9431 47.496 33.9431 47.4528C33.9442 47.4116 33.9418 47.3704 33.9357 47.3296C33.9357 47.2864 33.9431 47.2496 33.9431 47.2064C33.9442 47.1652 33.9418 47.124 33.9357 47.0832C33.9357 47.04 33.9431 47.0032 33.9431 46.96C33.9442 46.9188 33.9418 46.8775 33.9357 46.8368C33.9357 46.7936 33.9431 46.7568 33.9431 46.7136C33.9442 46.6724 33.9418 46.6311 33.9357 46.5904C33.9357 46.5471 33.9431 46.5104 33.9431 46.4672C33.9442 46.4259 33.9418 46.3847 33.9357 46.3439C33.9357 46.3007 33.9431 46.264 33.9431 46.2207C33.9442 46.1795 33.9418 46.1383 33.9357 46.0975C33.9357 46.0543 33.9431 46.0175 33.9431 45.9743C33.9442 45.9331 33.9418 45.8919 33.9357 45.8511C33.9357 45.8079 33.9431 45.7711 33.9431 45.7279C33.9442 45.6867 33.9418 45.6455 33.9357 45.6047C33.9357 45.5615 33.9431 45.5247 33.9431 45.4815C33.9442 45.4403 33.9418 45.3991 33.9357 45.3583C33.9357 45.3151 33.9431 45.2783 33.9431 45.2351C33.9442 45.1939 33.9418 45.1527 33.9357 45.1119C33.9357 45.0687 33.9431 45.0319 33.9431 44.9887C33.9442 44.9475 33.9418 44.9063 33.9357 44.8655C33.9357 44.8223 33.9431 44.7855 33.9431 44.7423C33.9442 44.7011 33.9418 44.6598 33.9357 44.6191C33.9357 44.5759 33.9431 44.5391 33.9431 44.4959C33.9442 44.4547 33.9418 44.4134 33.9357 44.3727C33.9357 44.3294 33.9431 44.2927 33.9431 44.2495C33.9442 44.2083 33.9418 44.167 33.9357 44.1262C33.9357 44.083 33.9431 44.0463 33.9431 44.003C33.9442 43.9618 33.9418 43.9206 33.9357 43.8798C33.9357 43.8366 33.9431 43.7998 33.9431 43.7566C33.9442 43.7154 33.9418 43.6742 33.9357 43.6334C33.9357 43.5902 33.9431 43.5534 33.9431 43.5102C33.9442 43.469 33.9418 43.4278 33.9357 43.387C33.9357 43.3438 33.9431 43.307 33.9431 43.2638C33.9442 43.2226 33.9418 43.1814 33.9357 43.1406C33.9357 43.0974 33.9431 43.0606 33.9431 43.0174C33.9442 42.9762 33.9418 42.935 33.9357 42.8942C33.9357 42.851 33.9431 42.8142 33.9431 42.771C33.9442 42.7298 33.9418 42.6886 33.9357 42.6478C33.9357 42.6046 33.9431 42.5678 33.9431 42.5246C33.9442 42.4834 33.9418 42.4421 33.9357 42.4014C33.9357 42.3582 33.9431 42.3214 33.9431 42.2782C33.9442 42.237 33.9418 42.1957 33.9357 42.155C33.9357 42.1117 33.9431 42.075 33.9431 42.0318C33.9442 41.9905 33.9418 41.9493 33.9357 41.9085C33.9357 41.8653 33.9431 41.8286 33.9431 41.7853C33.9442 41.7441 33.9418 41.7029 33.9357 41.6621C33.9357 41.6189 33.9431 41.5821 33.9431 41.5389C33.9431 39.5162 30.2763 37.7996 25.2203 37.2175" fill="white"/>
<path d="M18.57 37.1569C13.0625 37.6267 8.96177 39.4187 8.96177 41.5619C8.9606 41.6031 8.96306 41.6444 8.96913 41.6851C8.96913 41.7283 8.96177 41.7651 8.96177 41.8083C8.9606 41.8495 8.96306 41.8908 8.96913 41.9315C8.96913 41.9747 8.96177 42.0115 8.96177 42.0547C8.9606 42.0959 8.96306 42.1372 8.96913 42.1779C8.96913 42.2212 8.96177 42.2579 8.96177 42.3011C8.9606 42.3424 8.96306 42.3836 8.96913 42.4244C8.96913 42.4676 8.96177 42.5043 8.96177 42.5476C8.9606 42.5888 8.96306 42.63 8.96913 42.6708C8.96913 42.714 8.96177 42.7508 8.96177 42.794C8.9606 42.8352 8.96306 42.8764 8.96913 42.9172C8.96913 42.9604 8.96177 42.9972 8.96177 43.0404C8.9606 43.0816 8.96306 43.1228 8.96913 43.1636C8.96913 43.2068 8.96177 43.2436 8.96177 43.2868C8.9606 43.328 8.96306 43.3692 8.96913 43.41C8.96913 43.4532 8.96177 43.49 8.96177 43.5332C8.9606 43.5744 8.96306 43.6156 8.96913 43.6564C8.96913 43.6996 8.96177 43.7364 8.96177 43.7796C8.9606 43.8208 8.96306 43.862 8.96913 43.9028C8.96913 43.946 8.96177 43.9828 8.96177 44.026C8.9606 44.0672 8.96306 44.1085 8.96913 44.1492C8.96913 44.1924 8.96177 44.2292 8.96177 44.2724C8.9606 44.3136 8.96306 44.3549 8.96913 44.3956C8.96913 44.4389 8.96177 44.4756 8.96177 44.5189C8.9606 44.5601 8.96306 44.6013 8.96913 44.6421C8.96913 44.6853 8.96177 44.722 8.96177 44.7653C8.9606 44.8065 8.96306 44.8477 8.96913 44.8885C8.96913 44.9317 8.96177 44.9685 8.96177 45.0117C8.9606 45.0529 8.96306 45.0941 8.96913 45.1349C8.96913 45.1781 8.96177 45.2149 8.96177 45.2581C8.9606 45.2993 8.96306 45.3405 8.96913 45.3813C8.96913 45.4245 8.96177 45.4613 8.96177 45.5045C8.9606 45.5457 8.96306 45.5869 8.96913 45.6277C8.96913 45.6709 8.96177 45.7077 8.96177 45.7509C8.9606 45.7921 8.96306 45.8333 8.96913 45.8741C8.96913 45.9173 8.96177 45.9541 8.96177 45.9973C8.9606 46.0385 8.96306 46.0798 8.96913 46.1205C8.96913 46.1637 8.96177 46.2005 8.96177 46.2437C8.9606 46.2849 8.96306 46.3262 8.96913 46.3669C8.96913 46.4101 8.96177 46.4469 8.96177 46.4901C8.9606 46.5313 8.96306 46.5726 8.96913 46.6133C8.96913 46.6566 8.96177 46.6933 8.96177 46.7366C8.9606 46.7778 8.96306 46.819 8.96913 46.8598C8.96913 46.903 8.96177 46.9397 8.96177 46.983C8.9606 47.0242 8.96306 47.0654 8.96913 47.1062C8.96913 47.1494 8.96177 47.1862 8.96177 47.2294C8.9606 47.2706 8.96306 47.3118 8.96913 47.3526C8.96913 47.3958 8.96177 47.4326 8.96177 47.4758C8.9606 47.517 8.96306 47.5582 8.96913 47.599C8.96913 47.6422 8.96177 47.679 8.96177 47.7222C8.9606 47.7634 8.96306 47.8046 8.96913 47.8454C8.96913 47.8886 8.96177 47.9254 8.96177 47.9686C8.9606 48.0098 8.96306 48.051 8.96913 48.0918C8.96913 48.135 8.96177 48.1718 8.96177 48.215C8.9606 48.2562 8.96306 48.2975 8.96913 48.3382C8.96913 48.3814 8.96177 48.4182 8.96177 48.4614C8.9606 48.5026 8.96306 48.5439 8.96913 48.5846C8.96913 48.6278 8.96177 48.6646 8.96177 48.7078C8.9606 48.749 8.96306 48.7903 8.96913 48.831C8.96913 48.8743 8.96177 48.911 8.96177 48.9542C8.9606 48.9955 8.96306 49.0367 8.96913 49.0775C8.96913 49.1207 8.96177 49.1574 8.96177 49.2007C8.9606 49.2419 8.96306 49.2831 8.96913 49.3239C8.96913 49.3671 8.96177 49.4039 8.96177 49.4471C8.9606 49.4883 8.96306 49.5295 8.96913 49.5703C8.96913 49.6135 8.96177 49.6503 8.96177 49.6935C8.9606 49.7347 8.96306 49.7759 8.96913 49.8167C8.96913 49.8599 8.96177 49.8967 8.96177 49.9399C8.9606 49.9811 8.96306 50.0223 8.96913 50.0631C8.96913 50.1063 8.96177 50.1431 8.96177 50.1863C8.9606 50.2275 8.96306 50.2687 8.96913 50.3095C8.96913 50.3527 8.96177 50.3895 8.96177 50.4327C8.9606 50.4739 8.96306 50.5151 8.96913 50.5559C8.96913 50.5991 8.96177 50.6359 8.96177 50.6791C8.9606 50.7203 8.96306 50.7616 8.96913 50.8023C8.96913 50.8455 8.96177 50.8823 8.96177 50.9255C8.9606 50.9667 8.96306 51.008 8.96913 51.0487C8.96913 51.092 8.96177 51.1287 8.96177 51.1719C8.9606 51.2132 8.96306 51.2544 8.96913 51.2952C8.96913 51.3384 8.96177 51.3752 8.96177 51.4184C8.9606 51.4596 8.96306 51.5008 8.96913 51.5416C8.96913 51.5848 8.96177 51.6216 8.96177 51.6648C8.9606 51.706 8.96306 51.7472 8.96913 51.788C8.96913 51.8312 8.96177 51.868 8.96177 51.9112C8.9606 51.9524 8.96306 51.9936 8.96913 52.0344C8.96913 52.0776 8.96177 52.1144 8.96177 52.1576C8.9606 52.1988 8.96306 52.24 8.96913 52.2808C8.96913 52.324 8.96177 52.3608 8.96177 52.404C8.9606 52.4452 8.96306 52.4864 8.96913 52.5272C8.96913 52.5704 8.96177 52.6072 8.96177 52.6504C8.9606 52.6916 8.96306 52.7329 8.96913 52.7736C8.96913 52.8168 8.96177 52.8536 8.96177 52.8968C8.9606 52.938 8.96306 52.9793 8.96913 53.02C8.96913 53.0632 8.96177 53.1 8.96177 53.1432C8.9606 53.1844 8.96306 53.2257 8.96913 53.2664C8.96913 53.3097 8.96177 53.3464 8.96177 53.3897C8.9606 53.4309 8.96306 53.4721 8.96913 53.5129C8.96913 53.5561 8.96177 53.5928 8.96177 53.6361C8.9606 53.6773 8.96306 53.7185 8.96913 53.7593C8.96913 53.8025 8.96177 53.8393 8.96177 53.8825C8.9606 53.9237 8.96306 53.9649 8.96913 54.0057C8.96913 54.0489 8.96177 54.0857 8.96177 54.1289C8.9606 54.1701 8.96306 54.2113 8.96913 54.2521C8.96913 54.2953 8.96177 54.3321 8.96177 54.3753C8.9606 54.4165 8.96306 54.4577 8.96913 54.4985C8.96913 54.5417 8.96177 54.5785 8.96177 54.6217C8.9606 54.6629 8.96306 54.7041 8.96913 54.7449C8.96913 54.7881 8.96177 54.8249 8.96177 54.8681C8.9606 54.9093 8.96306 54.9505 8.96913 54.9913C8.96913 55.0345 8.96177 55.0713 8.96177 55.1145C8.9606 55.1557 8.96306 55.197 8.96913 55.2377C8.96913 55.281 8.96177 55.3177 8.96177 55.3609C8.9606 55.4021 8.96306 55.4434 8.96913 55.4841C8.96913 55.5274 8.96177 55.5641 8.96177 55.6074C8.9606 55.6486 8.96306 55.6898 8.96913 55.7306C8.96913 55.7738 8.96177 55.8105 8.96177 55.8538C8.9606 55.895 8.96306 55.9362 8.96913 55.977C8.96913 56.0202 8.96177 56.057 8.96177 56.1002C8.9606 56.1414 8.96306 56.1826 8.96913 56.2234C8.96913 56.2666 8.96177 56.3034 8.96177 56.3466C8.9606 56.3878 8.96306 56.429 8.96913 56.4698C8.96913 56.513 8.96177 56.5498 8.96177 56.593C8.9606 56.6342 8.96306 56.6754 8.96913 56.7162C8.96913 56.7594 8.96177 56.7962 8.96177 56.8394C8.9606 56.8806 8.96306 56.9218 8.96913 56.9626C8.96913 57.0058 8.96177 57.0426 8.96177 57.0858C8.9606 57.127 8.96306 57.1682 8.96913 57.209C8.96913 57.2522 8.96177 57.289 8.96177 57.3322C8.9606 57.3734 8.96306 57.4147 8.96913 57.4554C8.96913 57.4986 8.96177 57.5354 8.96177 57.5786C8.9606 57.6198 8.96306 57.6611 8.96913 57.7018C8.96913 57.7451 8.96177 57.7818 8.96177 57.825C8.9606 57.8663 8.96306 57.9075 8.96913 57.9483C8.96913 57.9915 8.96177 58.0283 8.96177 58.0715C8.9606 58.1127 8.96306 58.1539 8.96913 58.1947C8.96913 58.2379 8.96177 58.2747 8.96177 58.3179C8.9606 58.3591 8.96306 58.4003 8.96913 58.4411C8.96913 58.4843 8.96177 58.5211 8.96177 58.5643C8.9606 58.6055 8.96306 58.6467 8.96913 58.6875C8.96913 58.7307 8.96177 58.7675 8.96177 58.8107C8.9606 58.8519 8.96306 58.8931 8.96913 58.9339C8.96913 58.9771 8.96177 59.0139 8.96177 59.0571C8.9606 59.0983 8.96306 59.1395 8.96913 59.1803C8.96913 59.2235 8.96177 59.2603 8.96177 59.3035C8.9606 59.3447 8.96306 59.386 8.96913 59.4267C8.96913 59.4699 8.96177 59.5067 8.96177 59.5499C8.9606 59.5911 8.96306 59.6324 8.96913 59.6731C8.96913 59.7163 8.96177 59.7531 8.96177 59.7963C8.9606 59.8375 8.96306 59.8788 8.96913 59.9195C8.96913 59.9628 8.96177 59.9995 8.96177 60.0428C8.9606 60.084 8.96306 60.1252 8.96913 60.166C8.96913 60.2092 8.96177 60.2459 8.96177 60.2892C8.9606 60.3304 8.96306 60.3716 8.96913 60.4124C8.96913 60.4556 8.96177 60.4924 8.96177 60.5356C8.9606 60.5768 8.96306 60.618 8.96913 60.6588C8.96913 60.702 8.96177 60.7388 8.96177 60.782C8.9606 60.8232 8.96306 60.8644 8.96913 60.9052C8.96913 60.9484 8.96177 60.9852 8.96177 61.0284C8.9606 61.0696 8.96306 61.1108 8.96913 61.1516C8.96913 61.1948 8.96177 61.2316 8.96177 61.2748C8.9606 61.316 8.96306 61.3572 8.96913 61.398C8.96913 61.4412 8.96177 61.478 8.96177 61.5212C8.9606 61.5624 8.96306 61.6036 8.96913 61.6444C8.96913 61.6876 8.96177 61.7244 8.96177 61.7676C8.9606 61.8088 8.96306 61.8501 8.96913 61.8908C8.96913 61.9341 8.96177 61.9708 8.96177 62.014C8.96177 64.5168 14.5529 66.5414 21.4524 66.5414C28.3519 66.5414 33.9431 64.5186 33.9431 62.014C33.9442 61.9728 33.9418 61.9316 33.9357 61.8908C33.9357 61.8476 33.9431 61.8108 33.9431 61.7676C33.9442 61.7264 33.9418 61.6852 33.9357 61.6444C33.9357 61.6012 33.9431 61.5644 33.9431 61.5212C33.9442 61.48 33.9418 61.4388 33.9357 61.398C33.9357 61.3548 33.9431 61.318 33.9431 61.2748C33.9442 61.2336 33.9418 61.1924 33.9357 61.1516C33.9357 61.1084 33.9431 61.0716 33.9431 61.0284C33.9442 60.9872 33.9418 60.946 33.9357 60.9052C33.9357 60.862 33.9431 60.8252 33.9431 60.782C33.9442 60.7408 33.9418 60.6995 33.9357 60.6588C33.9357 60.6156 33.9431 60.5788 33.9431 60.5356C33.9442 60.4944 33.9418 60.4531 33.9357 60.4124C33.9357 60.3692 33.9431 60.3324 33.9431 60.2892C33.9442 60.248 33.9418 60.2067 33.9357 60.166C33.9357 60.1227 33.9431 60.086 33.9431 60.0428C33.9442 60.0015 33.9418 59.9603 33.9357 59.9195C33.9357 59.8763 33.9431 59.8396 33.9431 59.7963C33.9442 59.7551 33.9418 59.7139 33.9357 59.6731C33.9357 59.6299 33.9431 59.5931 33.9431 59.5499C33.9442 59.5087 33.9418 59.4675 33.9357 59.4267C33.9357 59.3835 33.9431 59.3467 33.9431 59.3035C33.9442 59.2623 33.9418 59.2211 33.9357 59.1803C33.9357 59.1371 33.9431 59.1003 33.9431 59.0571C33.9442 59.0159 33.9418 58.9747 33.9357 58.9339C33.9357 58.8907 33.9431 58.8539 33.9431 58.8107C33.9442 58.7695 33.9418 58.7283 33.9357 58.6875C33.9357 58.6443 33.9431 58.6075 33.9431 58.5643C33.9442 58.5231 33.9418 58.4819 33.9357 58.4411C33.9357 58.3979 33.9431 58.3611 33.9431 58.3179C33.9442 58.2767 33.9418 58.2354 33.9357 58.1947C33.9357 58.1515 33.9431 58.1147 33.9431 58.0715C33.9442 58.0303 33.9418 57.989 33.9357 57.9483C33.9357 57.905 33.9431 57.8683 33.9431 57.825C33.9442 57.7838 33.9418 57.7426 33.9357 57.7018C33.9357 57.6586 33.9431 57.6219 33.9431 57.5786C33.9442 57.5374 33.9418 57.4962 33.9357 57.4554C33.9357 57.4122 33.9431 57.3754 33.9431 57.3322C33.9442 57.291 33.9418 57.2498 33.9357 57.209C33.9357 57.1658 33.9431 57.129 33.9431 57.0858C33.9442 57.0446 33.9418 57.0034 33.9357 56.9626C33.9357 56.9194 33.9431 56.8826 33.9431 56.8394C33.9442 56.7982 33.9418 56.757 33.9357 56.7162C33.9357 56.673 33.9431 56.6362 33.9431 56.593C33.9442 56.5518 33.9418 56.5106 33.9357 56.4698C33.9357 56.4266 33.9431 56.3898 33.9431 56.3466C33.9442 56.3054 33.9418 56.2642 33.9357 56.2234C33.9357 56.1802 33.9431 56.1434 33.9431 56.1002C33.9442 56.059 33.9418 56.0177 33.9357 55.977C33.9357 55.9338 33.9431 55.897 33.9431 55.8538C33.9442 55.8126 33.9418 55.7713 33.9357 55.7306C33.9357 55.6873 33.9431 55.6506 33.9431 55.6074C33.9442 55.5661 33.9418 55.5249 33.9357 55.4841C33.9357 55.4409 33.9431 55.4042 33.9431 55.3609C33.9442 55.3197 33.9418 55.2785 33.9357 55.2377C33.9357 55.1945 33.9431 55.1577 33.9431 55.1145C33.9442 55.0733 33.9418 55.0321 33.9357 54.9913C33.9357 54.9481 33.9431 54.9113 33.9431 54.8681C33.9442 54.8269 33.9418 54.7857 33.9357 54.7449C33.9357 54.7017 33.9431 54.6649 33.9431 54.6217C33.9442 54.5805 33.9418 54.5393 33.9357 54.4985C33.9357 54.4553 33.9431 54.4185 33.9431 54.3753C33.9442 54.3341 33.9418 54.2929 33.9357 54.2521C33.9357 54.2089 33.9431 54.1721 33.9431 54.1289C33.9442 54.0877 33.9418 54.0464 33.9357 54.0057C33.9357 53.9625 33.9431 53.9257 33.9431 53.8825C33.9442 53.8413 33.9418 53.8 33.9357 53.7593C33.9357 53.7161 33.9431 53.6793 33.9431 53.6361C33.9442 53.5949 33.9418 53.5536 33.9357 53.5129C33.9357 53.4696 33.9431 53.4329 33.9431 53.3897C33.9442 53.3484 33.9418 53.3072 33.9357 53.2664C33.9357 53.2232 33.9431 53.1865 33.9431 53.1432C33.9442 53.102 33.9418 53.0608 33.9357 53.02C33.9357 52.9768 33.9431 52.94 33.9431 52.8968C33.9457 52.848 33.9433 52.799 33.9357 52.7506C33.9357 52.7074 33.9431 52.6706 33.9431 52.6274C33.9442 52.5862 33.9418 52.545 33.9357 52.5042C33.9357 52.461 33.9431 52.4242 33.9431 52.381C33.9442 52.3398 33.9418 52.2986 33.9357 52.2578C33.9357 52.2146 33.9431 52.1778 33.9431 52.1346C33.9442 52.0934 33.9418 52.0522 33.9357 52.0114C33.9357 51.9682 33.9431 51.9314 33.9431 51.8882C33.9442 51.847 33.9418 51.8058 33.9357 51.765C33.9357 51.7218 33.9431 51.685 33.9431 51.6418C33.9442 51.6006 33.9418 51.5594 33.9357 51.5186C33.9357 51.4754 33.9431 51.4386 33.9431 51.3954C33.9442 51.3542 33.9418 51.3129 33.9357 51.2722C33.9357 51.229 33.9431 51.1922 33.9431 51.149C33.9442 51.1078 33.9418 51.0665 33.9357 51.0258C33.9357 50.9825 33.9431 50.9458 33.9431 50.9026C33.9442 50.8613 33.9418 50.8201 33.9357 50.7794C33.9357 50.7361 33.9431 50.6994 33.9431 50.6561C33.9442 50.6149 33.9418 50.5737 33.9357 50.5329C33.9357 50.4897 33.9431 50.4529 33.9431 50.4097C33.9442 50.3685 33.9418 50.3273 33.9357 50.2865C33.9357 50.2433 33.9431 50.2065 33.9431 50.1633C33.9442 50.1221 33.9418 50.0809 33.9357 50.0401C33.9357 49.9969 33.9431 49.9601 33.9431 49.9169C33.9442 49.8757 33.9418 49.8345 33.9357 49.7937C33.9357 49.7505 33.9431 49.7137 33.9431 49.6705C33.9442 49.6293 33.9418 49.5881 33.9357 49.5473C33.9357 49.5041 33.9431 49.4673 33.9431 49.4241C33.9442 49.3829 33.9418 49.3417 33.9357 49.3009C33.9357 49.2577 33.9431 49.2209 33.9431 49.1777C33.9442 49.1365 33.9418 49.0952 33.9357 49.0545C33.9357 49.0113 33.9431 48.9745 33.9431 48.9313C33.9442 48.8901 33.9418 48.8488 33.9357 48.8081C33.9357 48.7648 33.9431 48.7281 33.9431 48.6849C33.9442 48.6436 33.9418 48.6024 33.9357 48.5616C33.9357 48.5184 33.9431 48.4817 33.9431 48.4384C33.9442 48.3972 33.9418 48.356 33.9357 48.3152C33.9357 48.272 33.9431 48.2352 33.9431 48.192C33.9442 48.1508 33.9418 48.1096 33.9357 48.0688C33.9357 48.0256 33.9431 47.9888 33.9431 47.9456C33.9442 47.9044 33.9418 47.8632 33.9357 47.8224C33.9357 47.7792 33.9431 47.7424 33.9431 47.6992C33.9442 47.658 33.9418 47.6168 33.9357 47.576C33.9357 47.5328 33.9431 47.496 33.9431 47.4528C33.9442 47.4116 33.9418 47.3704 33.9357 47.3296C33.9357 47.2864 33.9431 47.2496 33.9431 47.2064C33.9442 47.1652 33.9418 47.124 33.9357 47.0832C33.9357 47.04 33.9431 47.0032 33.9431 46.96C33.9442 46.9188 33.9418 46.8775 33.9357 46.8368C33.9357 46.7936 33.9431 46.7568 33.9431 46.7136C33.9442 46.6724 33.9418 46.6311 33.9357 46.5904C33.9357 46.5471 33.9431 46.5104 33.9431 46.4672C33.9442 46.4259 33.9418 46.3847 33.9357 46.3439C33.9357 46.3007 33.9431 46.264 33.9431 46.2207C33.9442 46.1795 33.9418 46.1383 33.9357 46.0975C33.9357 46.0543 33.9431 46.0175 33.9431 45.9743C33.9442 45.9331 33.9418 45.8919 33.9357 45.8511C33.9357 45.8079 33.9431 45.7711 33.9431 45.7279C33.9442 45.6867 33.9418 45.6455 33.9357 45.6047C33.9357 45.5615 33.9431 45.5247 33.9431 45.4815C33.9442 45.4403 33.9418 45.3991 33.9357 45.3583C33.9357 45.3151 33.9431 45.2783 33.9431 45.2351C33.9442 45.1939 33.9418 45.1527 33.9357 45.1119C33.9357 45.0687 33.9431 45.0319 33.9431 44.9887C33.9442 44.9475 33.9418 44.9063 33.9357 44.8655C33.9357 44.8223 33.9431 44.7855 33.9431 44.7423C33.9442 44.7011 33.9418 44.6598 33.9357 44.6191C33.9357 44.5759 33.9431 44.5391 33.9431 44.4959C33.9442 44.4547 33.9418 44.4134 33.9357 44.3727C33.9357 44.3294 33.9431 44.2927 33.9431 44.2495C33.9442 44.2083 33.9418 44.167 33.9357 44.1262C33.9357 44.083 33.9431 44.0463 33.9431 44.003C33.9442 43.9618 33.9418 43.9206 33.9357 43.8798C33.9357 43.8366 33.9431 43.7998 33.9431 43.7566C33.9442 43.7154 33.9418 43.6742 33.9357 43.6334C33.9357 43.5902 33.9431 43.5534 33.9431 43.5102C33.9442 43.469 33.9418 43.4278 33.9357 43.387C33.9357 43.3438 33.9431 43.307 33.9431 43.2638C33.9442 43.2226 33.9418 43.1814 33.9357 43.1406C33.9357 43.0974 33.9431 43.0606 33.9431 43.0174C33.9442 42.9762 33.9418 42.935 33.9357 42.8942C33.9357 42.851 33.9431 42.8142 33.9431 42.771C33.9442 42.7298 33.9418 42.6886 33.9357 42.6478C33.9357 42.6046 33.9431 42.5678 33.9431 42.5246C33.9442 42.4834 33.9418 42.4421 33.9357 42.4014C33.9357 42.3582 33.9431 42.3214 33.9431 42.2782C33.9442 42.237 33.9418 42.1957 33.9357 42.155C33.9357 42.1117 33.9431 42.075 33.9431 42.0318C33.9442 41.9905 33.9418 41.9493 33.9357 41.9085C33.9357 41.8653 33.9431 41.8286 33.9431 41.7853C33.9442 41.7441 33.9418 41.7029 33.9357 41.6621C33.9357 41.6189 33.9431 41.5821 33.9431 41.5389C33.9431 39.5162 30.2763 37.7996 25.2203 37.2175" stroke="#475965" stroke-width="1.95842" stroke-linecap="round" stroke-linejoin="round"/>
</g>
<g id="Vector_2">
<path d="M25.4732 37.2788C30.3913 37.8865 33.9321 39.5774 33.9321 41.568C33.9321 44.0707 28.3409 46.0953 21.4414 46.0953C14.5419 46.0953 8.95074 44.0725 8.95074 41.568C8.95074 39.3834 13.2326 37.5537 18.924 37.1344" fill="white"/>
<path d="M25.4732 37.2788C30.3913 37.8865 33.9321 39.5774 33.9321 41.568C33.9321 44.0707 28.3409 46.0953 21.4414 46.0953C14.5419 46.0953 8.95074 44.0725 8.95074 41.568C8.95074 39.3834 13.2326 37.5537 18.924 37.1344" stroke="#475965" stroke-width="1.95842" stroke-linecap="round" stroke-linejoin="round"/>
</g>
<path id="Vector_3" d="M34.0155 48.2867C34.0155 50.7895 28.4244 52.8141 21.5249 52.8141C14.6254 52.8141 9.03424 50.7895 9.03424 48.2867" stroke="#475965" stroke-width="1.95842" stroke-linecap="round" stroke-linejoin="round"/>
<path id="Vector_4" d="M34.0155 55.2369C34.0155 57.7397 28.4244 59.7643 21.5249 59.7643C14.6254 59.7643 9.03424 57.7397 9.03424 55.2369" stroke="#475965" stroke-width="1.95842" stroke-linecap="round" stroke-linejoin="round"/>
<g id="Vector_5">
<path d="M45.2182 32.5928C44.3133 33.5691 43.5842 34.6945 43.063 35.9193C41.801 35.1702 40.3633 34.7685 38.8958 34.7551C37.4283 34.7417 35.9835 35.117 34.708 35.8429C33.4326 36.5688 32.3721 37.6194 31.6342 38.8879C30.8963 40.1564 30.5074 41.5977 30.5071 43.0653C30.5063 43.4598 30.5352 43.8538 30.5935 44.244C28.7221 44.2826 26.9321 45.0168 25.5726 46.3034C24.213 47.5899 23.3812 49.3367 23.2395 51.2031C23.0977 53.0696 23.6561 54.9219 24.8057 56.3991C25.9553 57.8762 27.6139 58.8723 29.458 59.1932V59.3109H63.9371C65.8134 59.218 67.5874 58.428 68.9117 57.0956C70.236 55.7632 71.0151 53.9844 71.0966 52.1076C71.178 50.2308 70.5559 48.3912 69.352 46.9491C68.1482 45.5069 66.4493 44.5662 64.5881 44.3111C65.5118 41.7074 65.4733 38.859 64.4795 36.2812C63.4857 33.7034 61.6023 31.5663 59.1698 30.2565" fill="white"/>
<path d="M45.2182 32.5928C44.3133 33.5691 43.5842 34.6945 43.063 35.9193C41.801 35.1702 40.3633 34.7685 38.8958 34.7551C37.4283 34.7417 35.9835 35.117 34.708 35.8429C33.4326 36.5688 32.3721 37.6194 31.6342 38.8879C30.8963 40.1564 30.5074 41.5977 30.5071 43.0653C30.5063 43.4598 30.5352 43.8538 30.5935 44.244C28.7221 44.2826 26.9321 45.0168 25.5726 46.3034C24.213 47.5899 23.3812 49.3367 23.2395 51.2031C23.0977 53.0696 23.6561 54.9219 24.8057 56.3991C25.9553 57.8762 27.6139 58.8723 29.458 59.1932V59.3109H63.9371C65.8134 59.218 67.5874 58.428 68.9117 57.0956C70.236 55.7632 71.0151 53.9844 71.0966 52.1076C71.178 50.2308 70.5559 48.3912 69.352 46.9491C68.1482 45.5069 66.4493 44.5662 64.5881 44.3111C65.5118 41.7074 65.4733 38.859 64.4795 36.2812C63.4857 33.7034 61.6023 31.5663 59.1698 30.2565" stroke="#719D37" stroke-width="2.60203" stroke-linecap="round" stroke-linejoin="round"/>
</g>
<g id="Vector_6">
<path d="M59.1699 30.256C58.5937 29.9428 57.991 29.6813 57.3687 29.4745L59.1699 30.256Z" fill="white"/>
<path d="M59.1699 30.256C58.5937 29.9428 57.991 29.6813 57.3687 29.4745" stroke="#719D37" stroke-width="2.60203" stroke-linecap="round" stroke-linejoin="round"/>
</g>
<path id="Vector_7" d="M25.0035 37.6911C25.0042 34.4796 26.0355 31.3531 27.9456 28.7714C29.8558 26.1897 32.5439 24.2891 35.6148 23.3491C38.6856 22.4091 41.9771 22.4793 45.0051 23.5494C48.033 24.6195 50.6377 26.633 52.436 29.2938" stroke="#719D37" stroke-width="2.60203" stroke-linecap="round" stroke-linejoin="round"/>
<path id="Vector_8" d="M53.051 21.0992V29.4818H44.5746" stroke="#719D37" stroke-width="2.60203" stroke-linecap="round" stroke-linejoin="round"/>
</g>
</g>
</g>
<defs>
<clipPath id="clip0_1_3800">
<rect width="79.9917" height="82.75" fill="white" transform="translate(0.134186 0.964355)"/>
</clipPath>
</defs>
</svg>
