<svg width="81" height="84" viewBox="0 0 81 84" fill="none" xmlns="http://www.w3.org/2000/svg">
<g id="icon-omuni.svg" clip-path="url(#clip0_1_3830)">
<g id="Group">
<path id="Vector" d="M32.962 15.9903C37.649 14.7031 42.5962 14.7031 47.2832 15.9903" stroke="#475965" stroke-width="1.95842" stroke-linecap="round" stroke-linejoin="round"/>
<path id="Vector_2" d="M14.2265 34.7423C15.4166 30.4235 17.6705 26.472 20.7821 23.2493" stroke="#475965" stroke-width="1.95842" stroke-linecap="round" stroke-linejoin="round"/>
<path id="Vector_3" d="M21.3255 61.0628C17.9369 57.7453 15.4875 53.5895 14.2265 49.0181" stroke="#475965" stroke-width="1.95842" stroke-linecap="round" stroke-linejoin="round"/>
<path id="Vector_4" d="M46.5937 67.9554C42.3454 69.0007 37.9072 69.0007 33.6589 67.9554" stroke="#475965" stroke-width="1.95842" stroke-linecap="round" stroke-linejoin="round"/>
<path id="Vector_5" d="M66.1062 48.7192C64.86 53.4495 62.3448 57.7492 58.8324 61.1538" stroke="#475965" stroke-width="1.95842" stroke-linecap="round" stroke-linejoin="round"/>
<path id="Vector_6" d="M59.1156 22.8931C62.5134 26.2843 64.9375 30.5261 66.1347 35.175" stroke="#475965" stroke-width="1.95842" stroke-linecap="round" stroke-linejoin="round"/>
</g>
<path id="Vector_7" d="M53.3369 23.2271C55.5417 23.2271 57.3291 21.4398 57.3291 19.2349C57.3291 17.0301 55.5417 15.2427 53.3369 15.2427C51.132 15.2427 49.3446 17.0301 49.3446 19.2349C49.3446 21.4398 51.132 23.2271 53.3369 23.2271Z" fill="white"/>
<path id="Vector_8" d="M53.3369 23.2271C55.5417 23.2271 57.3291 21.4398 57.3291 19.2349C57.3291 17.0301 55.5417 15.2427 53.3369 15.2427C51.132 15.2427 49.3446 17.0301 49.3446 19.2349C49.3446 21.4398 51.132 23.2271 53.3369 23.2271Z" stroke="#475965" stroke-width="1.95842" stroke-linecap="round" stroke-linejoin="round"/>
<path id="Vector_9" d="M66.9832 45.8737C69.1881 45.8737 70.9755 44.0864 70.9755 41.8815C70.9755 39.6767 69.1881 37.8893 66.9832 37.8893C64.7784 37.8893 62.991 39.6767 62.991 41.8815C62.991 44.0864 64.7784 45.8737 66.9832 45.8737Z" fill="white"/>
<path id="Vector_10" d="M66.9832 45.8737C69.1881 45.8737 70.9755 44.0864 70.9755 41.8815C70.9755 39.6767 69.1881 37.8893 66.9832 37.8893C64.7784 37.8893 62.991 39.6767 62.991 41.8815C62.991 44.0864 64.7784 45.8737 66.9832 45.8737Z" stroke="#475965" stroke-width="1.95842" stroke-linecap="round" stroke-linejoin="round"/>
<path id="Vector_11" d="M53.3369 69.6539C55.5417 69.6539 57.3291 67.8665 57.3291 65.6617C57.3291 63.4568 55.5417 61.6694 53.3369 61.6694C51.132 61.6694 49.3446 63.4568 49.3446 65.6617C49.3446 67.8665 51.132 69.6539 53.3369 69.6539Z" fill="white"/>
<path id="Vector_12" d="M53.3369 69.6539C55.5417 69.6539 57.3291 67.8665 57.3291 65.6617C57.3291 63.4568 55.5417 61.6694 53.3369 61.6694C51.132 61.6694 49.3446 63.4568 49.3446 65.6617C49.3446 67.8665 51.132 69.6539 53.3369 69.6539Z" stroke="#475965" stroke-width="1.95842" stroke-linecap="round" stroke-linejoin="round"/>
<path id="Vector_13" d="M26.8789 69.6539C29.0837 69.6539 30.8711 67.8665 30.8711 65.6617C30.8711 63.4568 29.0837 61.6694 26.8789 61.6694C24.674 61.6694 22.8866 63.4568 22.8866 65.6617C22.8866 67.8665 24.674 69.6539 26.8789 69.6539Z" fill="white"/>
<path id="Vector_14" d="M26.8789 69.6539C29.0837 69.6539 30.8711 67.8665 30.8711 65.6617C30.8711 63.4568 29.0837 61.6694 26.8789 61.6694C24.674 61.6694 22.8866 63.4568 22.8866 65.6617C22.8866 67.8665 24.674 69.6539 26.8789 69.6539Z" stroke="#475965" stroke-width="1.95842" stroke-linecap="round" stroke-linejoin="round"/>
<path id="Vector_15" d="M13.6315 45.8737C15.8364 45.8737 17.6238 44.0864 17.6238 41.8815C17.6238 39.6767 15.8364 37.8893 13.6315 37.8893C11.4267 37.8893 9.63931 39.6767 9.63931 41.8815C9.63931 44.0864 11.4267 45.8737 13.6315 45.8737Z" fill="white"/>
<path id="Vector_16" d="M13.6315 45.8737C15.8364 45.8737 17.6238 44.0864 17.6238 41.8815C17.6238 39.6767 15.8364 37.8893 13.6315 37.8893C11.4267 37.8893 9.63931 39.6767 9.63931 41.8815C9.63931 44.0864 11.4267 45.8737 13.6315 45.8737Z" stroke="#475965" stroke-width="1.95842" stroke-linecap="round" stroke-linejoin="round"/>
<path id="Vector_17" d="M26.8789 23.2271C29.0837 23.2271 30.8711 21.4398 30.8711 19.2349C30.8711 17.0301 29.0837 15.2427 26.8789 15.2427C24.674 15.2427 22.8866 17.0301 22.8866 19.2349C22.8866 21.4398 24.674 23.2271 26.8789 23.2271Z" fill="white"/>
<path id="Vector_18" d="M26.8789 23.2271C29.0837 23.2271 30.8711 21.4398 30.8711 19.2349C30.8711 17.0301 29.0837 15.2427 26.8789 15.2427C24.674 15.2427 22.8866 17.0301 22.8866 19.2349C22.8866 21.4398 24.674 23.2271 26.8789 23.2271Z" stroke="#475965" stroke-width="1.95842" stroke-linecap="round" stroke-linejoin="round"/>
<path id="Vector_19" d="M30.0439 25.7466L50.4408 60.1458" stroke="#475965" stroke-width="1.95842" stroke-linecap="round" stroke-linejoin="round"/>
<path id="Vector_20" d="M50.4408 25.7466L30.0439 60.1458" stroke="#475965" stroke-width="1.95842" stroke-linecap="round" stroke-linejoin="round"/>
<path id="Vector_21" d="M20.7885 42.1647H59.1146" stroke="#475965" stroke-width="1.95842" stroke-linecap="round" stroke-linejoin="round"/>
<path id="Vector_22" d="M40.3074 55.1518C47.3231 55.1518 53.0104 49.4645 53.0104 42.4488C53.0104 35.4331 47.3231 29.7457 40.3074 29.7457C33.2917 29.7457 27.6043 35.4331 27.6043 42.4488C27.6043 49.4645 33.2917 55.1518 40.3074 55.1518Z" fill="white" stroke="#719D37" stroke-width="2.60203" stroke-linecap="round" stroke-linejoin="round"/>
<path id="Vector_23" d="M44.4523 46.6943H45.5124C46.0959 46.6678 46.6484 46.4238 47.061 46.0104C47.4736 45.597 47.7166 45.0442 47.7421 44.4606C47.7676 43.8771 47.5737 43.3051 47.1987 42.8573C46.8236 42.4095 46.2946 42.1183 45.7156 42.041C45.8497 41.6568 45.9184 41.2527 45.9188 40.8458C45.9199 40.018 45.6345 39.2155 45.1112 38.5742C44.5879 37.9328 43.8589 37.4923 43.0478 37.3273C42.2367 37.1623 41.3935 37.283 40.6612 37.6689C39.929 38.0548 39.3527 38.6822 39.0304 39.4445C38.6338 39.2057 38.1794 39.0801 37.7165 39.0813C37.0337 39.0813 36.3789 39.3526 35.8961 39.8354C35.4133 40.3182 35.142 40.973 35.142 41.6558C35.1411 41.779 35.151 41.9021 35.1714 42.0236C34.5902 42.035 34.0341 42.2628 33.6118 42.6624C33.1895 43.062 32.9314 43.6047 32.8878 44.1844C32.8443 44.7641 33.0184 45.3393 33.3763 45.7975C33.7341 46.2557 34.25 46.564 34.823 46.6622L35.222 46.698H40.9924" fill="#719D37"/>
</g>
<defs>
<clipPath id="clip0_1_3830">
<rect width="79.9917" height="82.75" fill="white" transform="translate(0.384186 0.964355)"/>
</clipPath>
</defs>
</svg>
