<svg width="88" height="84" viewBox="0 0 88 84" fill="none" xmlns="http://www.w3.org/2000/svg">
<g id="icon-mall.svg" clip-path="url(#clip0_1_3874)">
<g id="Group">
<g id="Vector">
<path d="M60.156 49.9274V63.3324H28.119V49.9274" fill="white"/>
<path d="M60.156 49.9274V63.3324H28.119V49.9274" stroke="#475965" stroke-width="1.42" stroke-linecap="round" stroke-linejoin="round"/>
</g>
<g id="Vector_2">
<path d="M35.4139 38.1949V41.6949C35.407 42.7445 34.9859 43.7489 34.2423 44.4896C33.4986 45.2303 32.4925 45.6473 31.4429 45.6499H30.7319C29.6809 45.6499 28.6729 45.2333 27.9285 44.4914C27.1842 43.7495 26.7643 42.7428 26.7609 41.6919V38.1919" fill="white"/>
<path d="M35.4139 38.1949V41.6949C35.407 42.7445 34.9859 43.7489 34.2423 44.4896C33.4986 45.2303 32.4925 45.6473 31.4429 45.6499H30.7319C29.6809 45.6499 28.6729 45.2333 27.9285 44.4914C27.1842 43.7495 26.7643 42.7428 26.7609 41.6919V38.1919" stroke="#475965" stroke-width="1.42" stroke-linecap="round" stroke-linejoin="round"/>
</g>
<g id="Vector_3">
<path d="M44.0672 38.5659V41.6919C44.0603 42.7415 43.6393 43.7459 42.8956 44.4866C42.1519 45.2273 41.1458 45.6443 40.0962 45.6469H39.3852C38.3348 45.6469 37.3272 45.2308 36.5829 44.4895C35.8387 43.7483 35.4184 42.7423 35.4142 41.6919V38.5659" fill="white"/>
<path d="M44.0672 38.5659V41.6919C44.0603 42.7415 43.6393 43.7459 42.8956 44.4866C42.1519 45.2273 41.1458 45.6443 40.0962 45.6469H39.3852C38.3348 45.6469 37.3272 45.2308 36.5829 44.4895C35.8387 43.7483 35.4184 42.7423 35.4142 41.6919V38.5659" stroke="#475965" stroke-width="1.42" stroke-linecap="round" stroke-linejoin="round"/>
</g>
<g id="Vector_4">
<path d="M52.7122 38.1958V41.6958C52.7054 42.7454 52.2843 43.7498 51.5406 44.4905C50.7969 45.2312 49.7908 45.6482 48.7412 45.6508H48.0302C46.9798 45.6508 45.9722 45.2346 45.2279 44.4934C44.4837 43.7521 44.0634 42.7462 44.0592 41.6958V38.1958" fill="white"/>
<path d="M52.7122 38.1958V41.6958C52.7054 42.7454 52.2843 43.7498 51.5406 44.4905C50.7969 45.2312 49.7908 45.6482 48.7412 45.6508H48.0302C46.9798 45.6508 45.9722 45.2346 45.2279 44.4934C44.4837 43.7521 44.0634 42.7462 44.0592 41.6958V38.1958" stroke="#475965" stroke-width="1.42" stroke-linecap="round" stroke-linejoin="round"/>
</g>
<g id="Vector_5">
<path d="M61.3641 38.1958V41.6958C61.3572 42.7454 60.9361 43.7498 60.1925 44.4905C59.4488 45.2312 58.4427 45.6482 57.3931 45.6508H56.6821C55.6317 45.6508 54.624 45.2346 53.8798 44.4934C53.1355 43.7521 52.7153 42.7462 52.7111 41.6958V38.5668" fill="white"/>
<path d="M61.3641 38.1958V41.6958C61.3572 42.7454 60.9361 43.7498 60.1925 44.4905C59.4488 45.2312 58.4427 45.6482 57.3931 45.6508H56.6821C55.6317 45.6508 54.624 45.2346 53.8798 44.4934C53.1355 43.7521 52.7153 42.7462 52.7111 41.6958V38.5668" stroke="#475965" stroke-width="1.42" stroke-linecap="round" stroke-linejoin="round"/>
</g>
<path id="Vector_6" d="M26.556 37.5323H61.556L55.506 29.0693C55.4013 28.924 55.2638 28.8053 55.1046 28.7229C54.9455 28.6406 54.7692 28.5969 54.59 28.5953H33.938C33.7665 28.5955 33.5974 28.6355 33.4439 28.7122C33.2905 28.7889 33.157 28.9002 33.054 29.0373L26.554 37.5323H26.556Z" fill="white" stroke="#475965" stroke-width="1.42" stroke-linecap="round" stroke-linejoin="round"/>
<g id="Vector_7">
<path d="M35.4139 38.1949V41.6949C35.407 42.7445 34.9859 43.7489 34.2423 44.4896C33.4986 45.2303 32.4925 45.6473 31.4429 45.6499H30.7319C29.6809 45.6499 28.6729 45.2333 27.9285 44.4914C27.1842 43.7495 26.7643 42.7428 26.7609 41.6919V38.1919" fill="white"/>
<path d="M35.4139 38.1949V41.6949C35.407 42.7445 34.9859 43.7489 34.2423 44.4896C33.4986 45.2303 32.4925 45.6473 31.4429 45.6499H30.7319C29.6809 45.6499 28.6729 45.2333 27.9285 44.4914C27.1842 43.7495 26.7643 42.7428 26.7609 41.6919V38.1919" stroke="#475965" stroke-width="1.42" stroke-linecap="round" stroke-linejoin="round"/>
</g>
<g id="Vector_8">
<path d="M44.0672 38.5659V41.6919C44.0603 42.7415 43.6393 43.7459 42.8956 44.4866C42.1519 45.2273 41.1458 45.6443 40.0962 45.6469H39.3852C38.3348 45.6469 37.3272 45.2308 36.5829 44.4895C35.8387 43.7483 35.4184 42.7423 35.4142 41.6919V38.5659" fill="white"/>
<path d="M44.0672 38.5659V41.6919C44.0603 42.7415 43.6393 43.7459 42.8956 44.4866C42.1519 45.2273 41.1458 45.6443 40.0962 45.6469H39.3852C38.3348 45.6469 37.3272 45.2308 36.5829 44.4895C35.8387 43.7483 35.4184 42.7423 35.4142 41.6919V38.5659" stroke="#475965" stroke-width="1.42" stroke-linecap="round" stroke-linejoin="round"/>
</g>
<g id="Vector_9">
<path d="M52.7122 38.1958V41.6958C52.7054 42.7454 52.2843 43.7498 51.5406 44.4905C50.7969 45.2312 49.7908 45.6482 48.7412 45.6508H48.0302C46.9798 45.6508 45.9722 45.2346 45.2279 44.4934C44.4837 43.7521 44.0634 42.7462 44.0592 41.6958V38.1958" fill="white"/>
<path d="M52.7122 38.1958V41.6958C52.7054 42.7454 52.2843 43.7498 51.5406 44.4905C50.7969 45.2312 49.7908 45.6482 48.7412 45.6508H48.0302C46.9798 45.6508 45.9722 45.2346 45.2279 44.4934C44.4837 43.7521 44.0634 42.7462 44.0592 41.6958V38.1958" stroke="#475965" stroke-width="1.42" stroke-linecap="round" stroke-linejoin="round"/>
</g>
<g id="Vector_10">
<path d="M61.3641 38.1958V41.6958C61.3572 42.7454 60.9361 43.7498 60.1925 44.4905C59.4488 45.2312 58.4427 45.6482 57.3931 45.6508H56.6821C55.6317 45.6508 54.624 45.2346 53.8798 44.4934C53.1355 43.7521 52.7153 42.7462 52.7111 41.6958V38.5668" fill="white"/>
<path d="M61.3641 38.1958V41.6958C61.3572 42.7454 60.9361 43.7498 60.1925 44.4905C59.4488 45.2312 58.4427 45.6482 57.3931 45.6508H56.6821C55.6317 45.6508 54.624 45.2346 53.8798 44.4934C53.1355 43.7521 52.7153 42.7462 52.7111 41.6958V38.5668" stroke="#475965" stroke-width="1.42" stroke-linecap="round" stroke-linejoin="round"/>
</g>
<path id="Vector_11" d="M46.1432 50.353H53.3822V56.574H46.1432V50.353Z" fill="white" stroke="#719D37" stroke-width="2.83" stroke-linecap="round" stroke-linejoin="round"/>
<path id="Vector_12" d="M34.443 60.514V50.353H40.08V60.442" stroke="#719D37" stroke-width="2.83" stroke-linecap="round" stroke-linejoin="round"/>
<g id="Vector_13">
<path d="M24.52 60.0114H12.204V53.2914" fill="white"/>
<path d="M24.52 60.0114H12.204V53.2914" stroke="#475965" stroke-width="1.42" stroke-linecap="round" stroke-linejoin="round"/>
</g>
<g id="Vector_14">
<path d="M26.552 42.6089H15.117C15.0311 42.6081 14.9462 42.6277 14.8694 42.6661C14.7925 42.7045 14.7259 42.7607 14.675 42.8299L11.422 47.0849H24.522" fill="white"/>
<path d="M26.552 42.6089H15.117C15.0311 42.6081 14.9462 42.6277 14.8694 42.6661C14.7925 42.7045 14.7259 42.7607 14.675 42.8299L11.422 47.0849H24.522" stroke="#475965" stroke-width="1.42" stroke-linecap="round" stroke-linejoin="round"/>
</g>
<path id="Vector_15" d="M15.851 47.4174V49.1704C15.8489 49.6966 15.6384 50.2005 15.2657 50.572C14.8929 50.9434 14.3882 51.1521 13.862 51.1524H13.507C12.9808 51.1521 12.4761 50.9434 12.1033 50.572C11.7306 50.2005 11.5201 49.6966 11.518 49.1704V47.4174" stroke="#475965" stroke-width="1.42" stroke-linecap="round" stroke-linejoin="round"/>
<g id="Vector_16">
<path d="M20.185 47.5984V49.1694C20.1829 49.6956 19.9724 50.1996 19.5997 50.571C19.2269 50.9425 18.7222 51.1511 18.196 51.1514H17.841C17.3148 51.1511 16.8101 50.9425 16.4373 50.571C16.0646 50.1996 15.8541 49.6956 15.852 49.1694V47.5984" fill="white"/>
<path d="M20.185 47.5984V49.1694C20.1829 49.6956 19.9724 50.1996 19.5997 50.571C19.2269 50.9425 18.7222 51.1511 18.196 51.1514H17.841C17.3148 51.1511 16.8101 50.9425 16.4373 50.571C16.0646 50.1996 15.8541 49.6956 15.852 49.1694V47.5984" stroke="#475965" stroke-width="1.42" stroke-linecap="round" stroke-linejoin="round"/>
</g>
<g id="Vector_17">
<path d="M24.515 47.4174V49.1704C24.5129 49.6966 24.3024 50.2005 23.9297 50.572C23.5569 50.9434 23.0522 51.1521 22.526 51.1524H22.171C21.6448 51.1521 21.1401 50.9434 20.7673 50.572C20.3946 50.2005 20.1841 49.6966 20.182 49.1704V47.4174" fill="white"/>
<path d="M24.515 47.4174V49.1704C24.5129 49.6966 24.3024 50.2005 23.9297 50.572C23.5569 50.9434 23.0522 51.1521 22.526 51.1524H22.171C21.6448 51.1521 21.1401 50.9434 20.7673 50.572C20.3946 50.2005 20.1841 49.6966 20.182 49.1704V47.4174" stroke="#475965" stroke-width="1.42" stroke-linecap="round" stroke-linejoin="round"/>
</g>
<path id="Vector_18" d="M15.851 47.4174V49.1704C15.8489 49.6966 15.6384 50.2005 15.2657 50.572C14.8929 50.9434 14.3882 51.1521 13.862 51.1524H13.507C12.9808 51.1521 12.4761 50.9434 12.1033 50.572C11.7306 50.2005 11.5201 49.6966 11.518 49.1704V47.4174" stroke="#475965" stroke-width="1.42" stroke-linecap="round" stroke-linejoin="round"/>
<path id="Vector_19" d="M20.185 47.5984V49.1694C20.1829 49.6956 19.9724 50.1996 19.5997 50.571C19.2269 50.9425 18.7222 51.1511 18.196 51.1514H17.841C17.3148 51.1511 16.8101 50.9425 16.4373 50.571C16.0646 50.1996 15.8541 49.6956 15.852 49.1694V47.5984" stroke="#475965" stroke-width="1.42" stroke-linecap="round" stroke-linejoin="round"/>
<path id="Vector_20" d="M24.515 47.4174V49.1704C24.5129 49.6966 24.3024 50.2005 23.9297 50.572C23.5569 50.9434 23.0522 51.1521 22.526 51.1524H22.171C21.6448 51.1521 21.1401 50.9434 20.7673 50.572C20.3946 50.2005 20.1841 49.6966 20.182 49.1704V47.4174" stroke="#475965" stroke-width="1.42" stroke-linecap="round" stroke-linejoin="round"/>
<g id="Vector_21">
<path d="M15.851 59.5273V55.0433H20.335V59.5273" fill="white"/>
<path d="M15.851 59.5273V55.0433H20.335V59.5273" stroke="#475965" stroke-width="1.42" stroke-linecap="round" stroke-linejoin="round"/>
</g>
<g id="Vector_22">
<path d="M64.136 60.0114H76.452V53.2914" fill="white"/>
<path d="M64.136 60.0114H76.452V53.2914" stroke="#475965" stroke-width="1.42" stroke-linecap="round" stroke-linejoin="round"/>
</g>
<g id="Vector_23">
<path d="M61.7828 42.6089H73.5378C73.6238 42.6081 73.7086 42.6277 73.7855 42.6661C73.8624 42.7045 73.929 42.7607 73.9798 42.8299L77.2328 47.0849H64.1328" fill="white"/>
<path d="M61.7828 42.6089H73.5378C73.6238 42.6081 73.7086 42.6277 73.7855 42.6661C73.8624 42.7045 73.929 42.7607 73.9798 42.8299L77.2328 47.0849H64.1328" stroke="#475965" stroke-width="1.42" stroke-linecap="round" stroke-linejoin="round"/>
</g>
<path id="Vector_24" d="M72.796 47.4174V49.1704C72.7984 49.6966 73.0091 50.2004 73.382 50.5717C73.755 50.9429 74.2598 51.1514 74.786 51.1514H75.141C75.6672 51.1511 76.1719 50.9424 76.5447 50.571C76.9174 50.1995 77.1279 49.6956 77.13 49.1694V47.4174" stroke="#475965" stroke-width="1.42" stroke-linecap="round" stroke-linejoin="round"/>
<g id="Vector_25">
<path d="M68.462 47.5984V49.1694C68.4641 49.6956 68.6746 50.1996 69.0473 50.571C69.4201 50.9425 69.9248 51.1511 70.451 51.1514H70.806C71.3322 51.1511 71.8369 50.9425 72.2097 50.571C72.5824 50.1996 72.7929 49.6956 72.795 49.1694V47.5984" fill="white"/>
<path d="M68.462 47.5984V49.1694C68.4641 49.6956 68.6746 50.1996 69.0473 50.571C69.4201 50.9425 69.9248 51.1511 70.451 51.1514H70.806C71.3322 51.1511 71.8369 50.9425 72.2097 50.571C72.5824 50.1996 72.7929 49.6956 72.795 49.1694V47.5984" stroke="#475965" stroke-width="1.42" stroke-linecap="round" stroke-linejoin="round"/>
</g>
<g id="Vector_26">
<path d="M64.136 47.4174V49.1704C64.1381 49.6966 64.3486 50.2005 64.7213 50.572C65.0941 50.9434 65.5988 51.1521 66.125 51.1524H66.48C67.0062 51.1521 67.5109 50.9434 67.8837 50.572C68.2564 50.2005 68.4669 49.6966 68.469 49.1704V47.4174" fill="white"/>
<path d="M64.136 47.4174V49.1704C64.1381 49.6966 64.3486 50.2005 64.7213 50.572C65.0941 50.9434 65.5988 51.1521 66.125 51.1524H66.48C67.0062 51.1521 67.5109 50.9434 67.8837 50.572C68.2564 50.2005 68.4669 49.6966 68.469 49.1704V47.4174" stroke="#475965" stroke-width="1.42" stroke-linecap="round" stroke-linejoin="round"/>
</g>
<path id="Vector_27" d="M72.796 47.4174V49.1704C72.7984 49.6966 73.0091 50.2004 73.382 50.5717C73.755 50.9429 74.2598 51.1514 74.786 51.1514H75.141C75.6672 51.1511 76.1719 50.9424 76.5447 50.571C76.9174 50.1995 77.1279 49.6956 77.13 49.1694V47.4174" stroke="#475965" stroke-width="1.42" stroke-linecap="round" stroke-linejoin="round"/>
<path id="Vector_28" d="M68.462 47.5984V49.1694C68.4641 49.6956 68.6746 50.1996 69.0473 50.571C69.4201 50.9425 69.9248 51.1511 70.451 51.1514H70.806C71.3322 51.1511 71.8369 50.9425 72.2097 50.571C72.5824 50.1996 72.7929 49.6956 72.795 49.1694V47.5984" stroke="#475965" stroke-width="1.42" stroke-linecap="round" stroke-linejoin="round"/>
<path id="Vector_29" d="M64.136 47.4174V49.1704C64.1381 49.6966 64.3486 50.2005 64.7213 50.572C65.0941 50.9434 65.5988 51.1521 66.125 51.1524H66.48C67.0062 51.1521 67.5109 50.9434 67.8837 50.572C68.2564 50.2005 68.4669 49.6966 68.469 49.1704V47.4174" stroke="#475965" stroke-width="1.42" stroke-linecap="round" stroke-linejoin="round"/>
<g id="Vector_30">
<path d="M72.796 59.5273V55.0433H68.312V59.5273" fill="white"/>
<path d="M72.796 59.5273V55.0433H68.312V59.5273" stroke="#475965" stroke-width="1.42" stroke-linecap="round" stroke-linejoin="round"/>
</g>
<path id="Vector_31" d="M38.856 28.7614L35.414 36.9564" stroke="#475965" stroke-width="1.42" stroke-linecap="round" stroke-linejoin="round"/>
<path id="Vector_32" d="M49.261 28.7614L52.711 36.9564" stroke="#475965" stroke-width="1.42" stroke-linecap="round" stroke-linejoin="round"/>
<path id="Vector_33" d="M44.051 28.5483V38.5663" stroke="#475965" stroke-width="1.42" stroke-linecap="round" stroke-linejoin="round"/>
</g>
</g>
<defs>
<clipPath id="clip0_1_3874">
<rect width="87" height="90" fill="white" transform="translate(0.630005 0.964355)"/>
</clipPath>
</defs>
</svg>
