<svg width="81" height="84" viewBox="0 0 81 84" fill="none" xmlns="http://www.w3.org/2000/svg">
<g id="icon-multi.svg" clip-path="url(#clip0_1_3928)">
<g id="Group">
<g id="Vector">
<path d="M48.4865 33.0553H50.5093C51.623 33.0023 52.6768 32.5348 53.4635 31.7447C54.2503 30.9545 54.7132 29.8988 54.7613 28.7848C54.8095 27.6708 54.4394 26.579 53.7237 25.7239C53.0081 24.8688 51.9986 24.3122 50.8936 24.1633C51.4835 22.4859 51.3985 20.6448 50.6566 19.0288C49.9147 17.4128 48.5739 16.1483 46.9173 15.5022C45.2606 14.8561 43.4177 14.879 41.7776 15.5661C40.1376 16.2531 38.8286 17.5506 38.1271 19.1845C37.3801 18.7411 36.5291 18.5033 35.6604 18.4953C34.7918 18.4873 33.9365 18.7094 33.1815 19.1391C32.4265 19.5687 31.7987 20.1905 31.3618 20.9414C30.925 21.6922 30.6947 22.5453 30.6943 23.414C30.6928 23.6497 30.7097 23.8852 30.7449 24.1183C29.6359 24.1425 28.5757 24.5787 27.7707 25.3419C26.9657 26.1051 26.4736 27.1406 26.3903 28.2467C26.307 29.3528 26.6384 30.4503 27.32 31.3255C28.0016 32.2006 28.9845 32.7907 30.0774 32.9808L30.8469 33.0461H41.8738" fill="white"/>
<path d="M48.4865 33.0553H50.5093C51.623 33.0023 52.6768 32.5348 53.4635 31.7447C54.2503 30.9545 54.7132 29.8988 54.7613 28.7848C54.8095 27.6708 54.4394 26.579 53.7237 25.7239C53.0081 24.8688 51.9986 24.3122 50.8936 24.1633C51.4835 22.4859 51.3985 20.6448 50.6566 19.0288C49.9147 17.4128 48.5739 16.1483 46.9173 15.5022C45.2606 14.8561 43.4177 14.879 41.7776 15.5661C40.1376 16.2531 38.8286 17.5506 38.1271 19.1845C37.3801 18.7411 36.5291 18.5033 35.6604 18.4953C34.7918 18.4873 33.9365 18.7094 33.1815 19.1391C32.4265 19.5687 31.7987 20.1905 31.3618 20.9414C30.925 21.6922 30.6947 22.5453 30.6943 23.414C30.6928 23.6497 30.7097 23.8852 30.7449 24.1183C29.6359 24.1425 28.5757 24.5787 27.7707 25.3419C26.9657 26.1051 26.4736 27.1406 26.3903 28.2467C26.307 29.3528 26.6384 30.4503 27.32 31.3255C28.0016 32.2006 28.9845 32.7907 30.0774 32.9808L30.8469 33.0461H41.8738" stroke="#719D37" stroke-width="2.60203" stroke-linecap="round" stroke-linejoin="round"/>
</g>
<path id="Vector_2" d="M15.118 56.7337V41.6714H66.0313V56.7337" stroke="#475965" stroke-width="1.95842" stroke-linecap="round" stroke-linejoin="round"/>
<path id="Vector_3" d="M10.5741 56.7338H20.5915V66.7511H10.5741V56.7338Z" stroke="#475965" stroke-width="1.95842" stroke-linecap="round" stroke-linejoin="round"/>
<path id="Vector_4" d="M35.5665 56.7338H45.5838V66.7511H35.5665V56.7338Z" stroke="#719D37" stroke-width="2.60203" stroke-linecap="round" stroke-linejoin="round"/>
<path id="Vector_5" d="M61.0222 56.7338H71.0395V66.7511H61.0222V56.7338Z" stroke="#475965" stroke-width="1.95842" stroke-linecap="round" stroke-linejoin="round"/>
<path id="Vector_6" d="M40.5746 33.063V56.7341" stroke="#719D37" stroke-width="2.60203" stroke-linecap="round" stroke-linejoin="round"/>
</g>
</g>
<defs>
<clipPath id="clip0_1_3928">
<rect width="79.9917" height="82.75" fill="white" transform="translate(0.884171 0.964355)"/>
</clipPath>
</defs>
</svg>
