<svg width="81" height="84" viewBox="0 0 81 84" fill="none" xmlns="http://www.w3.org/2000/svg">
<g id="icon-furusato.svg" clip-path="url(#clip0_1_3955)">
<g id="Group">
<g id="Vector">
<path d="M36.385 16.6872C37.7103 16.5033 39.0466 16.4112 40.3846 16.4114C46.4757 16.417 52.4054 18.3705 57.3072 21.9864C62.209 25.6023 65.8259 30.6911 67.6294 36.5091C69.4329 42.3272 69.3285 48.5695 67.3314 54.324C65.3343 60.0784 61.5493 65.0434 56.5293 68.4933C51.5093 71.9433 45.5176 73.6974 39.4297 73.4993C33.3417 73.3012 27.4767 71.1613 22.6916 67.3924C17.9065 63.6234 14.4522 58.4229 12.8334 52.5508C11.2146 46.6787 11.5161 40.4428 13.694 34.7543" fill="white"/>
<path d="M36.385 16.6872C37.7103 16.5033 39.0466 16.4112 40.3846 16.4114C46.4757 16.417 52.4054 18.3705 57.3072 21.9864C62.209 25.6023 65.8259 30.6911 67.6294 36.5091C69.4329 42.3272 69.3285 48.5695 67.3314 54.324C65.3343 60.0784 61.5493 65.0434 56.5293 68.4933C51.5093 71.9433 45.5176 73.6974 39.4297 73.4993C33.3417 73.3012 27.4767 71.1613 22.6916 67.3924C17.9065 63.6234 14.4522 58.4229 12.8334 52.5508C11.2146 46.6787 11.5161 40.4428 13.694 34.7543" stroke="#719D37" stroke-width="2.60203" stroke-linecap="round" stroke-linejoin="round"/>
</g>
<path id="Vector_2" d="M54.9818 25.3029V19.4231H58.6678L63.4489 25.3029L65.6335 26.5295V30.3553H60.9913L58.392 32.2677L55.801 30.6274H53.6109L53.0647 32.2677H50.6043V27.4866L54.9818 25.3029Z" fill="white" stroke="#475965" stroke-width="1.28722" stroke-linecap="round" stroke-linejoin="round"/>
<path id="Vector_3" d="M55.3018 36.4879V35.3772H54.6048V34.0275H56.9273V37.1536L57.8854 38.279V48.7845L56.6368 50.0552V59.0198H54.5386V56.5079H51.1707V58.3734H47.1187V57.0016H43.2295L41.9156 57.7418V58.6925L42.8893 59.6873V60.5875L39.5572 63.9407H37.8507L36.9212 62.5394V57.089H24.6107V53.5537L27.3111 51.2965H38.852L42.2999 48.5676V43.5943H45.2256V45.709H43.977V48.0757L44.6813 48.2936L50.4011 45.3366V35.3266H52.4846V36.5219L55.3018 36.4879Z" fill="white" stroke="#475965" stroke-width="1.28722" stroke-linecap="round" stroke-linejoin="round"/>
<path id="Vector_4" d="M31.057 63.6146L31.9645 64.181H32.9373L34.4765 63.1282V60.2982H33.2637L32.5383 60.6972H30.5486L29.939 59.8118H27.7544L26.7016 61.2259V63.6164L27.7544 64.4219H28.524L30.121 63.6238L31.057 63.6146Z" fill="white" stroke="#475965" stroke-width="1.28722" stroke-linecap="round" stroke-linejoin="round"/>
<path id="Vector_5" d="M16.2852 67.534H17.9733V66.8665H19.2504V68.8699H20.5376L22.5843 67.3308V64.2047L23.0486 63.7449V57.7998L21.3577 55.5931H13.6206L12.5393 56.4639V59.4916L13.3448 60.6676H15.5156V58.9758H16.2557L16.2852 67.534Z" fill="white" stroke="#475965" stroke-width="1.28722" stroke-linecap="round" stroke-linejoin="round"/>
<path id="Vector_6" d="M14.2596 50.2797H16.5095V52.5295H14.2596V50.2797Z" fill="white" stroke="#475965" stroke-width="1.28722" stroke-linecap="round" stroke-linejoin="round"/>
<path id="Vector_7" d="M11.1528 68.514H15.2829V71.3956H11.1528V68.514Z" fill="white" stroke="#475965" stroke-width="1.28722" stroke-linecap="round" stroke-linejoin="round"/>
<path id="Vector_8" d="M13.3521 9.6604L24.0664 20.3021V41.5991" stroke="#719D37" stroke-width="2.60203" stroke-linecap="round" stroke-linejoin="round"/>
<path id="Vector_9" d="M24.0664 20.302L34.8598 9.6604" stroke="#719D37" stroke-width="2.60203" stroke-linecap="round" stroke-linejoin="round"/>
<path id="Vector_10" d="M15.3989 24.8821H32.6532" stroke="#719D37" stroke-width="2.60203" stroke-linecap="round" stroke-linejoin="round"/>
<path id="Vector_11" d="M15.3988 30.8196H32.6531" stroke="#719D37" stroke-width="2.60203" stroke-linecap="round" stroke-linejoin="round"/>
</g>
</g>
<defs>
<clipPath id="clip0_1_3955">
<rect width="79.9917" height="82.75" fill="white" transform="translate(0.134186 0.964355)"/>
</clipPath>
</defs>
</svg>
