<svg width="172" height="40" viewBox="0 0 172 40" fill="none" xmlns="http://www.w3.org/2000/svg">
<g clip-path="url(#clip0_203_860)">
<path d="M40.3739 11.9645H50.2992V15.0505H43.9056V18.2921H49.413V21.2674H43.9056V24.9521H50.5445V28.0381H40.3765V11.9645H40.3739ZM52.4963 11.9645H58.1803C59.8447 11.9645 61.1345 12.2098 62.1763 12.9404C63.2182 13.6711 63.9303 14.7841 63.9303 16.2928C63.9303 17.8015 63.176 18.9806 61.8651 19.5793V19.6241C63.598 20.2018 64.529 21.5786 64.529 23.3326C64.529 24.931 63.8195 26.1311 62.7091 26.9303C61.5987 27.7295 60.2007 28.0407 58.4467 28.0407H52.4963V11.9672V11.9645ZM58.2911 18.5796C59.5334 18.5796 60.4012 17.9123 60.4012 16.7808C60.4012 16.0924 60.1137 15.6255 59.6917 15.338C59.2697 15.0505 58.7817 14.9371 57.8717 14.9371H56.007V18.577H58.2938L58.2911 18.5796ZM60.2007 24.6197C60.6887 24.3085 60.9999 23.7995 60.9999 23.0662C60.9999 21.8239 60.0451 21.1117 58.7131 21.1117H56.0043V25.0629H58.2252C59.1589 25.0629 59.7128 24.9283 60.2007 24.6197ZM66.3516 11.9645H69.8807V28.0381H66.3516V11.9645ZM77.3188 25.2185C78.7615 25.2185 79.6504 24.6646 79.6504 23.5542C79.6504 22.7761 79.2284 22.354 78.2287 21.9558C77.2291 21.5575 75.2324 21.1566 73.9004 20.3785C72.5685 19.6004 71.8589 18.4478 71.8589 16.6489C71.8589 13.5629 74.1009 11.7192 77.477 11.7192C79.0543 11.7192 80.9639 12.1202 82.3619 12.8508V16.2691C80.6738 15.2246 78.7879 14.7815 77.5667 14.7815C76.2558 14.7815 75.4144 15.2932 75.4144 16.3139C75.4144 17.092 75.8575 17.4903 76.8809 17.8912C77.9017 18.2921 79.901 18.6693 81.233 19.4685C82.565 20.2677 83.2085 21.5549 83.2085 23.2429C83.2085 26.4186 80.8769 28.2834 77.3926 28.2834C75.7283 28.2834 73.6393 27.8403 72.1095 27.0173V23.4645C73.9084 24.7068 76.0844 25.2185 77.3267 25.2185H77.3188ZM88.3097 11.9645V20.9113C88.3097 22.0665 88.4653 23.0873 89.064 23.8654C89.6628 24.6435 90.5727 25.1077 91.8388 25.1077C93.1048 25.1077 94.0148 24.6408 94.6135 23.8654C95.2123 23.0873 95.3916 22.0665 95.3916 20.9113V11.9645H98.7888V21.1328C98.7888 22.9079 98.4117 24.7068 97.2353 26.0625C96.0589 27.4182 94.1704 28.2834 91.7728 28.2834C89.3752 28.2834 87.4867 27.4393 86.3341 26.0625C85.1815 24.6857 84.7805 22.9765 84.7805 21.1328V11.9645H88.3097ZM101.231 11.9645H104.628L109.403 18.759L114.177 11.9645H117.529V28.0381H114V21.5997C114 20.2677 114.021 18.759 114.045 17.58H114C113.246 18.7115 112.446 19.8879 111.647 21.0221L109.316 24.3296L106.984 21.0221C106.185 19.8905 105.385 18.7142 104.631 17.58H104.586C104.607 18.7564 104.631 20.2677 104.631 21.5997V28.0381H101.234V11.9645H101.231ZM125.165 11.9645H128.763L135.201 28.0381H131.427L130.116 24.6646H123.654L122.343 28.0381H118.724L125.162 11.9645H125.165ZM129.074 21.8872L128.43 20.1543C127.942 18.8223 127.365 17.2239 126.964 16.0238H126.919C126.476 17.2899 125.919 18.8223 125.386 20.1754L124.722 21.8846H129.074V21.8872ZM136.401 11.9645H142.307C144.04 11.9645 145.393 12.252 146.503 13.0512C147.613 13.8504 148.368 15.1613 148.368 16.9153C148.368 19.0465 147.213 20.6686 145.261 21.423L149.634 28.0381H145.593L141.642 21.932H139.933V28.0381H136.404V11.9645H136.401ZM142.106 19.1335C142.995 19.1335 143.594 19.0228 144.082 18.6904C144.57 18.3581 144.836 17.7356 144.836 17.0683C144.836 16.3588 144.549 15.7574 144.082 15.4251C143.615 15.0927 142.995 14.982 142.106 14.982H139.93V19.1335H142.106ZM154.45 15.0505H149.254V11.9645H163.175V15.0505H157.979V28.0381H154.45V15.0505Z" fill="black"/>
<g clip-path="url(#clip1_203_860)">
<path d="M8.22412 8.22443H32.8976V28.4113C32.8976 30.2682 31.3902 31.7756 29.5333 31.7756H8.22412V8.22443Z" fill="#76C210"/>
<path d="M16.6591 13.832H24.2751V16.2005H19.3679V18.6878H23.5933V20.9706H19.3679V23.7995H24.4624V26.168H16.6591V13.832Z" fill="white"/>
</g>
</g>
<defs>
<clipPath id="clip0_203_860">
<rect width="171.402" height="40" fill="white"/>
</clipPath>
<clipPath id="clip1_203_860">
<rect width="24.6734" height="23.5511" fill="white" transform="translate(8.22412 8.22443)"/>
</clipPath>
</defs>
</svg>
