<svg width="180" height="41" viewBox="0 0 180 41" fill="none" xmlns="http://www.w3.org/2000/svg">
<g clip-path="url(#clip0_203_1230)">
<path d="M46.5845 12.7319H56.1241V15.6739H49.979V18.7642H55.2723V21.6005H49.979V25.1133H56.3599V28.0552H46.587V12.7319H46.5845ZM58.2358 12.7319H63.699C65.2987 12.7319 66.5383 12.9657 67.5397 13.6623C68.5411 14.3588 69.2255 15.4199 69.2255 16.8582C69.2255 18.2965 68.5005 19.4205 67.2406 19.9912V20.034C68.9061 20.5847 69.801 21.8972 69.801 23.5694C69.801 25.0932 69.1191 26.2373 68.0518 26.9991C66.9845 27.761 65.6409 28.0577 63.955 28.0577H58.2358V12.7344V12.7319ZM63.8055 19.0383C64.9995 19.0383 65.8336 18.4021 65.8336 17.3234C65.8336 16.6671 65.5572 16.222 65.1516 15.9479C64.746 15.6739 64.277 15.5657 63.4024 15.5657H61.6101V19.0357H63.808L63.8055 19.0383ZM65.6409 24.7964C66.1099 24.4997 66.409 24.0144 66.409 23.3154C66.409 22.1311 65.4913 21.4522 64.2111 21.4522H61.6075V25.2189H63.7421C64.6395 25.2189 65.1719 25.0906 65.6409 24.7964ZM71.5528 12.7319H74.9448V28.0552H71.5528V12.7319ZM82.0938 25.3672C83.4805 25.3672 84.3348 24.8392 84.3348 23.7806C84.3348 23.0388 83.9292 22.6365 82.9684 22.2568C82.0076 21.8771 80.0885 21.4949 78.8083 20.7531C77.528 20.0114 76.8461 18.9125 76.8461 17.1976C76.8461 14.2557 79.0009 12.498 82.2459 12.498C83.7619 12.498 85.5973 12.8803 86.9409 13.5768V16.8356C85.3184 15.8398 83.5058 15.4174 82.3321 15.4174C81.0721 15.4174 80.2634 15.9052 80.2634 16.8783C80.2634 17.6201 80.6893 17.9998 81.6729 18.382C82.654 18.7642 84.5756 19.1237 85.8559 19.8856C87.1361 20.6475 87.7547 21.8746 87.7547 23.4839C87.7547 26.5113 85.5136 28.2891 82.1648 28.2891C80.5651 28.2891 78.5573 27.8666 77.0869 27.0821V23.6951C78.8159 24.8794 80.9073 25.3672 82.1014 25.3672H82.0938ZM92.6576 12.7319V21.2611C92.6576 22.3624 92.8071 23.3355 93.3826 24.0773C93.9581 24.8191 94.8327 25.2616 96.0496 25.2616C97.2664 25.2616 98.141 24.8166 98.7165 24.0773C99.292 23.3355 99.4643 22.3624 99.4643 21.2611V12.7319H102.73V21.4723C102.73 23.1645 102.367 24.8794 101.236 26.1719C100.106 27.4643 98.2906 28.2891 95.9862 28.2891C93.6818 28.2891 91.8666 27.4844 90.7588 26.1719C89.6509 24.8593 89.2656 23.2299 89.2656 21.4723V12.7319H92.6576ZM105.077 12.7319H108.342L112.931 19.2092L117.519 12.7319H120.742V28.0552H117.35V21.9173C117.35 20.6475 117.37 19.2092 117.393 18.0853H117.35C116.625 19.164 115.856 20.2854 115.088 21.3667L112.847 24.5199L110.606 21.3667C109.838 20.288 109.07 19.1665 108.345 18.0853H108.302C108.322 19.2067 108.345 20.6475 108.345 21.9173V28.0552H105.08V12.7319H105.077ZM128.081 12.7319H131.539L137.727 28.0552H134.099L132.839 24.8392H126.628L125.368 28.0552H121.89L128.078 12.7319H128.081ZM131.838 22.1914L131.219 20.5394C130.75 19.2696 130.195 17.7458 129.81 16.6017H129.767C129.341 17.8087 128.806 19.2696 128.294 20.5595L127.655 22.1889H131.838V22.1914ZM138.88 12.7319H144.556C146.222 12.7319 147.522 13.006 148.59 13.7679C149.657 14.5298 150.382 15.7795 150.382 17.4516C150.382 19.4833 149.272 21.0297 147.396 21.7489L151.599 28.0552H147.715L143.918 22.2342H142.275V28.0552H138.883V12.7319H138.88ZM144.364 19.5663C145.218 19.5663 145.793 19.4607 146.262 19.1439C146.731 18.827 146.988 18.2336 146.988 17.5974C146.988 16.921 146.711 16.3477 146.262 16.0309C145.814 15.7141 145.218 15.6085 144.364 15.6085H142.272V19.5663H144.364ZM156.228 15.6739H151.234V12.7319H164.614V15.6739H159.62V28.0552H156.228V15.6739Z" fill="white"/>
<g clip-path="url(#clip1_203_1230)">
<path d="M15.6838 9.16602V31.618H36.165C37.951 31.618 39.3985 30.1822 39.3985 28.4107V9.16602H15.6838ZM31.2912 26.2721H23.7911V14.5118H31.1113V16.7699H26.3947V19.141H30.4559V21.3173H26.3947V24.0141H31.2912V26.2721Z" fill="white"/>
</g>
</g>
<defs>
<clipPath id="clip0_203_1230">
<rect width="164.207" height="37.7778" fill="white" transform="translate(7.77783 1.32617)"/>
</clipPath>
<clipPath id="clip1_203_1230">
<rect width="23.7147" height="22.4519" fill="white" transform="translate(15.6838 9.16602)"/>
</clipPath>
</defs>
</svg>
