<svg width="400" height="94" viewBox="0 0 400 94" fill="none" xmlns="http://www.w3.org/2000/svg">
<g clip-path="url(#clip0_203_852)">
<path d="M94.5466 27.9219H117.638V35.1015H102.763V42.6431H115.576V49.5649H102.763V58.1374H118.208V65.3169H94.5528V27.9219H94.5466ZM122.749 27.9219H135.973C139.845 27.9219 142.846 28.4926 145.27 30.1924C147.694 31.8922 149.35 34.4817 149.35 37.9917C149.35 41.5017 147.595 44.2447 144.546 45.6376V45.7419C148.577 47.0858 150.743 50.289 150.743 54.3697C150.743 58.0883 149.093 60.8803 146.509 62.7397C143.926 64.599 140.674 65.3231 136.593 65.3231H122.749V27.9281V27.9219ZM136.231 43.3119C139.121 43.3119 141.14 41.7594 141.14 39.1269C141.14 37.5253 140.471 36.4392 139.489 35.7703C138.508 35.1015 137.372 34.8376 135.255 34.8376H130.917V43.3058H136.237L136.231 43.3119ZM140.674 57.3642C141.809 56.6401 142.533 55.4558 142.533 53.7499C142.533 50.8597 140.312 49.2028 137.213 49.2028H130.911V58.3951H136.078C138.25 58.3951 139.538 58.0822 140.674 57.3642ZM154.984 27.9219H163.194V65.3169H154.984V27.9219ZM180.499 58.7572C183.855 58.7572 185.923 57.4685 185.923 54.8851C185.923 53.0749 184.941 52.0931 182.616 51.1665C180.29 50.2399 175.645 49.3072 172.546 47.4969C169.447 45.6867 167.796 43.0051 167.796 38.8201C167.796 31.6406 173.012 27.3513 180.867 27.3513C184.536 27.3513 188.979 28.284 192.231 29.9838V37.9365C188.304 35.5065 183.917 34.4756 181.075 34.4756C178.026 34.4756 176.068 35.666 176.068 38.0408C176.068 39.851 177.099 40.7776 179.48 41.7103C181.855 42.6431 186.506 43.5206 189.605 45.3799C192.704 47.2392 194.201 50.2338 194.201 54.161C194.201 61.5492 188.777 65.8876 180.671 65.8876C176.798 65.8876 171.938 64.8567 168.379 62.9422V54.6765C172.564 57.5667 177.627 58.7572 180.517 58.7572H180.499ZM206.069 27.9219V48.7365C206.069 51.4242 206.431 53.799 207.824 55.6092C209.217 57.4194 211.334 58.4994 214.279 58.4994C217.225 58.4994 219.342 57.4133 220.735 55.6092C222.128 53.799 222.545 51.4242 222.545 48.7365V27.9219H230.449V49.2519C230.449 53.3817 229.571 57.5667 226.834 60.7208C224.098 63.8749 219.704 65.8876 214.126 65.8876C208.548 65.8876 204.154 63.924 201.473 60.7208C198.791 57.5176 197.858 53.5413 197.858 49.2519V27.9219H206.069ZM236.131 27.9219H244.035L255.141 43.7292L266.248 27.9219H274.048V65.3169H265.837V50.3381C265.837 47.2392 265.886 43.7292 265.941 40.9863H265.837C264.082 43.6188 262.223 46.3556 260.363 48.9942L254.939 56.6892L249.514 48.9942C247.655 46.3617 245.796 43.6249 244.041 40.9863H243.936C243.985 43.7231 244.041 47.2392 244.041 50.3381V65.3169H236.137V27.9219H236.131ZM291.812 27.9219H300.182L315.161 65.3169H306.38L303.33 57.4685H288.296L285.246 65.3169H276.827L291.806 27.9219H291.812ZM300.906 51.0069L299.409 46.9754C298.274 43.8765 296.93 40.1578 295.997 37.3658H295.893C294.862 40.3113 293.567 43.8765 292.328 47.0244L290.781 51.0008H300.906V51.0069ZM317.953 27.9219H331.693C335.724 27.9219 338.872 28.5908 341.455 30.4501C344.039 32.3094 345.794 35.3592 345.794 39.4399C345.794 44.3981 343.106 48.1719 338.565 49.9269L348.739 65.3169H339.338L330.146 51.1113H326.17V65.3169H317.959V27.9219H317.953ZM331.226 44.6006C333.294 44.6006 334.687 44.3428 335.822 43.5697C336.958 42.7965 337.577 41.3483 337.577 39.7958C337.577 38.1451 336.908 36.746 335.822 35.9728C334.736 35.1997 333.294 34.9419 331.226 34.9419H326.164V44.6006H331.226ZM359.944 35.1015H347.856V27.9219H380.243V35.1015H368.155V65.3169H359.944V35.1015Z" fill="black"/>
<g clip-path="url(#clip1_203_852)">
<path d="M19.7505 19.2205H77.1531V66.1852C77.1531 70.5052 73.6462 74.0121 69.3262 74.0121H19.7505V19.2205Z" fill="black"/>
<path d="M39.3746 32.2664H57.0934V37.7769H45.6767V43.5635H55.5071V48.8745H45.6767V55.4557H57.5291V60.9662H39.3746V32.2664Z" fill="white"/>
</g>
</g>
<defs>
<clipPath id="clip0_203_852">
<rect width="398.765" height="93.0598" fill="white" transform="translate(0.61731 0.0864258)"/>
</clipPath>
<clipPath id="clip1_203_852">
<rect width="57.4026" height="54.7916" fill="white" transform="translate(19.7505 19.2205)"/>
</clipPath>
</defs>
</svg>
