<svg width="30" height="29" viewBox="0 0 30 29" fill="none" xmlns="http://www.w3.org/2000/svg">
<path d="M8.58341 7.79753L10.3334 9.54753M20.8334 8.38086L19.6667 9.54753M19.6667 18.8809L21.4167 20.6309M10.3334 18.8809L9.16675 20.0475M20.8334 14.2142C20.8334 17.4359 18.2217 20.0475 15.0001 20.0475C11.7784 20.0475 9.16675 17.4359 9.16675 14.2142C9.16675 10.9925 11.7784 8.38086 15.0001 8.38086C18.2217 8.38086 20.8334 10.9925 20.8334 14.2142ZM9.16675 4.88086C9.16675 6.81386 7.59974 8.38086 5.66675 8.38086C3.73375 8.38086 2.16675 6.81386 2.16675 4.88086C2.16675 2.94786 3.73375 1.38086 5.66675 1.38086C7.59974 1.38086 9.16675 2.94786 9.16675 4.88086ZM25.5001 6.04753C25.5001 7.33619 24.4554 8.38086 23.1667 8.38086C21.8781 8.38086 20.8334 7.33619 20.8334 6.04753C20.8334 4.75886 21.8781 3.71419 23.1667 3.71419C24.4554 3.71419 25.5001 4.75886 25.5001 6.04753ZM9.16675 22.3809C9.16675 23.6695 8.12208 24.7142 6.83341 24.7142C5.54475 24.7142 4.50008 23.6695 4.50008 22.3809C4.50008 21.0922 5.54475 20.0475 6.83341 20.0475C8.12208 20.0475 9.16675 21.0922 9.16675 22.3809ZM27.8334 23.5475C27.8334 25.4805 26.2664 27.0475 24.3334 27.0475C22.4004 27.0475 20.8334 25.4805 20.8334 23.5475C20.8334 21.6145 22.4004 20.0475 24.3334 20.0475C26.2664 20.0475 27.8334 21.6145 27.8334 23.5475Z" stroke="#78C710" stroke-width="2.4" stroke-linecap="round"/>
</svg>
