<svg width="28" height="29" viewBox="0 0 28 29" fill="none" xmlns="http://www.w3.org/2000/svg">
<path d="M9.61223 16.261C8.94949 16.261 8.41223 16.7982 8.41223 17.4609C8.41223 18.1237 8.94949 18.6609 9.61223 18.6609V16.261ZM9.61223 11.3155C8.94949 11.3155 8.41223 11.8527 8.41223 12.5155C8.41223 13.1782 8.94949 13.7155 9.61223 13.7155V11.3155ZM9.61223 6.36999C8.94949 6.36999 8.41223 6.90725 8.41223 7.56999C8.41223 8.23273 8.94949 8.76999 9.61223 8.76999V6.36999ZM12.085 26.0792C12.7477 26.0792 13.285 25.5419 13.285 24.8792C13.285 24.2164 12.7477 23.6792 12.085 23.6792V26.0792ZM5.99962 24.6008L6.55279 23.5359L6.55279 23.5359L5.99962 24.6008ZM4.94515 23.5463L3.88025 24.0995L3.88025 24.0995L4.94515 23.5463ZM20.6431 2.90291L20.0899 3.96781L20.0899 3.96781L20.6431 2.90291ZM21.6975 3.95738L20.6326 4.51055V4.51055L21.6975 3.95738ZM5.99962 2.90291L5.44645 1.83801V1.83801L5.99962 2.90291ZM4.94515 3.95738L3.88025 3.40421V3.40421L4.94515 3.95738ZM21.0364 15.4245L20.0084 16.0436V16.0436L21.0364 15.4245ZM22.5442 17.9283L23.5722 17.3093L23.5722 17.3093L22.5442 17.9283ZM22.7511 18.0725L22.976 16.8937L22.7511 18.0725ZM25.1353 18.5274L25.3602 17.3486L25.1353 18.5274ZM25.3035 19.0417L26.1815 19.8598H26.1815L25.3035 19.0417ZM23.616 20.8528L24.4939 21.6708L24.4939 21.6708L23.616 20.8528ZM23.5418 21.1369L24.7075 20.8518V20.8518L23.5418 21.1369ZM24.2874 24.185L23.1218 24.4701L24.2874 24.185ZM23.835 24.5275L24.4256 23.4828V23.4828L23.835 24.5275ZM20.9258 22.8828L20.3352 23.9275L20.3352 23.9275L20.9258 22.8828ZM20.6216 22.8828L20.031 21.8382H20.031L20.6216 22.8828ZM17.7123 24.5275L18.3028 25.5721H18.3028L17.7123 24.5275ZM17.2599 24.185L16.0943 23.8998L17.2599 24.185ZM18.0041 21.1427L19.1697 21.4278L18.0041 21.1427ZM17.9237 20.852L17.0702 21.6955H17.0702L17.9237 20.852ZM16.2015 19.1096L15.3481 19.9531L16.2015 19.1096ZM16.3635 18.5887L16.1386 17.4099L16.3635 18.5887ZM18.7293 18.1373L18.5044 16.9586L18.7293 18.1373ZM18.9351 17.9949L19.9588 18.621V18.621L18.9351 17.9949ZM20.5079 15.4228L21.5317 16.0488L20.5079 15.4228ZM9.61223 17.4609V18.6609H12.085V17.4609V16.261H9.61223V17.4609ZM9.61223 12.5155V13.7155H17.0304V12.5155V11.3155H9.61223V12.5155ZM9.61223 7.56999V8.76999H17.0304V7.56999V6.36999H9.61223V7.56999ZM8.64786 2.62451V3.82451H17.9948V2.62451V1.42451H8.64786V2.62451ZM21.9759 6.60562H20.7759V10.0427H21.9759H23.1759V6.60562H21.9759ZM12.085 24.8792V23.6792H8.64786V24.8792V26.0792H12.085V24.8792ZM4.66675 20.8981H5.86675V6.60562H4.66675H3.46675V20.8981H4.66675ZM8.64786 24.8792V23.6792C7.92362 23.6792 7.45381 23.6782 7.09595 23.6485C6.75246 23.62 6.62092 23.5713 6.55279 23.5359L5.99962 24.6008L5.44645 25.6657C5.91425 25.9087 6.40274 25.9992 6.89733 26.0403C7.37755 26.0801 7.9639 26.0792 8.64786 26.0792V24.8792ZM4.66675 20.8981H3.46675C3.46675 21.582 3.46578 22.1684 3.50566 22.6486C3.54674 23.1432 3.63725 23.6317 3.88025 24.0995L4.94515 23.5463L6.01004 22.9931C5.97465 22.925 5.92596 22.7935 5.89743 22.45C5.86771 22.0921 5.86675 21.6223 5.86675 20.8981H4.66675ZM5.99962 24.6008L6.55279 23.5359C6.32033 23.4151 6.13079 23.2256 6.01004 22.9931L4.94515 23.5463L3.88025 24.0995C4.2287 24.7703 4.77565 25.3172 5.44645 25.6657L5.99962 24.6008ZM17.9948 2.62451V3.82451C18.7191 3.82451 19.1889 3.82548 19.5467 3.85519C19.8902 3.88372 20.0218 3.93241 20.0899 3.96781L20.6431 2.90291L21.1962 1.83801C20.7284 1.59501 20.2399 1.5045 19.7453 1.46343C19.2651 1.42355 18.6788 1.42451 17.9948 1.42451V2.62451ZM21.9759 6.60562H23.1759C23.1759 5.92166 23.1769 5.33532 23.137 4.85509C23.0959 4.3605 23.0054 3.87202 22.7624 3.40421L21.6975 3.95738L20.6326 4.51055C20.668 4.57869 20.7167 4.71022 20.7452 5.05372C20.775 5.41158 20.7759 5.88138 20.7759 6.60562H21.9759ZM20.6431 2.90291L20.0899 3.96781C20.3223 4.08856 20.5119 4.27809 20.6326 4.51055L21.6975 3.95738L22.7624 3.40421C22.414 2.73341 21.867 2.18647 21.1962 1.83801L20.6431 2.90291ZM8.64786 2.62451V1.42451C7.9639 1.42451 7.37755 1.42355 6.89733 1.46343C6.40274 1.5045 5.91425 1.59501 5.44645 1.83801L5.99962 2.90291L6.55279 3.96781C6.62092 3.93241 6.75246 3.88372 7.09595 3.85519C7.45381 3.82548 7.92362 3.82451 8.64786 3.82451V2.62451ZM4.66675 6.60562H5.86675C5.86675 5.88138 5.86771 5.41158 5.89743 5.05372C5.92596 4.71022 5.97465 4.57869 6.01004 4.51055L4.94515 3.95738L3.88025 3.40421C3.63725 3.87202 3.54674 4.3605 3.50566 4.85509C3.46578 5.33532 3.46675 5.92166 3.46675 6.60562H4.66675ZM5.99962 2.90291L5.44645 1.83801C4.77565 2.18647 4.2287 2.73341 3.88025 3.40421L4.94515 3.95738L6.01004 4.51055C6.13079 4.27809 6.32033 4.08856 6.55279 3.96781L5.99962 2.90291ZM21.0364 15.4245L20.0084 16.0436L21.5162 18.5474L22.5442 17.9283L23.5722 17.3093L22.0644 14.8055L21.0364 15.4245ZM22.7511 18.0725L22.5262 19.2512L24.9104 19.7061L25.1353 18.5274L25.3602 17.3486L22.976 16.8937L22.7511 18.0725ZM25.3035 19.0417L24.4256 18.2236L22.738 20.0347L23.616 20.8528L24.4939 21.6708L26.1815 19.8598L25.3035 19.0417ZM23.5418 21.1369L22.3762 21.422L23.1218 24.4701L24.2874 24.185L25.453 23.8998L24.7075 20.8518L23.5418 21.1369ZM23.835 24.5275L24.4256 23.4828L21.5163 21.8382L20.9258 22.8828L20.3352 23.9275L23.2445 25.5721L23.835 24.5275ZM20.6216 22.8828L20.031 21.8382L17.1218 23.4828L17.7123 24.5275L18.3028 25.5721L21.2121 23.9275L20.6216 22.8828ZM17.2599 24.185L18.4256 24.4701L19.1697 21.4278L18.0041 21.1427L16.8384 20.8576L16.0943 23.8998L17.2599 24.185ZM17.9237 20.852L18.7771 20.0084L17.055 18.266L16.2015 19.1096L15.3481 19.9531L17.0702 21.6955L17.9237 20.852ZM16.3635 18.5887L16.5883 19.7674L18.9542 19.3161L18.7293 18.1373L18.5044 16.9586L16.1386 17.4099L16.3635 18.5887ZM18.9351 17.9949L19.9588 18.621L21.5317 16.0488L20.5079 15.4228L19.4842 14.7967L17.9113 17.3689L18.9351 17.9949ZM18.7293 18.1373L18.9542 19.3161C19.3721 19.2363 19.7369 18.9839 19.9588 18.621L18.9351 17.9949L17.9113 17.3689C18.0423 17.1547 18.2577 17.0056 18.5044 16.9586L18.7293 18.1373ZM16.2015 19.1096L17.055 18.266C17.5561 18.773 17.2885 19.6338 16.5883 19.7674L16.3635 18.5887L16.1386 17.4099C14.9526 17.6362 14.4993 19.0944 15.3481 19.9531L16.2015 19.1096ZM18.0041 21.1427L19.1697 21.4278C19.2943 20.9186 19.1456 20.3812 18.7771 20.0084L17.9237 20.852L17.0702 21.6955C16.8526 21.4754 16.7649 21.1582 16.8384 20.8576L18.0041 21.1427ZM17.7123 24.5275L17.1218 23.4828C17.8012 23.0988 18.611 23.7119 18.4256 24.4701L17.2599 24.185L16.0943 23.8998C15.7802 25.184 17.152 26.2227 18.3028 25.5721L17.7123 24.5275ZM20.9258 22.8828L21.5163 21.8382C21.0555 21.5777 20.4918 21.5777 20.031 21.8382L20.6216 22.8828L21.2121 23.9275C20.94 24.0813 20.6073 24.0813 20.3352 23.9275L20.9258 22.8828ZM24.2874 24.185L23.1218 24.4701C22.9363 23.7119 23.7462 23.0987 24.4256 23.4828L23.835 24.5275L23.2445 25.5721C24.3954 26.2227 25.7671 25.184 25.453 23.8998L24.2874 24.185ZM23.616 20.8528L22.738 20.0347C22.3914 20.4067 22.2554 20.9282 22.3762 21.422L23.5418 21.1369L24.7075 20.8518C24.7788 21.1434 24.6985 21.4512 24.4939 21.6708L23.616 20.8528ZM25.1353 18.5274L24.9104 19.7061C24.2219 19.5747 23.9477 18.7365 24.4256 18.2236L25.3035 19.0417L26.1815 19.8598C26.9909 18.9911 26.5265 17.5711 25.3602 17.3486L25.1353 18.5274ZM22.5442 17.9283L21.5162 18.5474C21.7375 18.9149 22.1048 19.1708 22.5262 19.2512L22.7511 18.0725L22.976 16.8937C23.2247 16.9412 23.4415 17.0923 23.5722 17.3093L22.5442 17.9283ZM21.0364 15.4245L22.0644 14.8055C21.4801 13.8352 20.075 13.8305 19.4842 14.7967L20.5079 15.4228L21.5317 16.0488C21.1829 16.6192 20.3534 16.6164 20.0084 16.0436L21.0364 15.4245Z" fill="#78C710"/>
</svg>
