<svg width="28" height="29" viewBox="0 0 28 29" fill="none" xmlns="http://www.w3.org/2000/svg">
<path d="M9.47325 8.16094C8.64482 8.16094 7.97325 8.83251 7.97325 9.66094C7.97325 10.4894 8.64482 11.1609 9.47325 11.1609V8.16094ZM18.9933 11.1609C19.8217 11.1609 20.4933 10.4894 20.4933 9.66094C20.4933 8.83251 19.8217 8.16094 18.9933 8.16094V11.1609ZM9.47325 12.9209C8.64482 12.9209 7.97325 13.5925 7.97325 14.4209C7.97325 15.2494 8.64482 15.9209 9.47325 15.9209V12.9209ZM14.2333 15.9209C15.0617 15.9209 15.7333 15.2494 15.7333 14.4209C15.7333 13.5925 15.0617 12.9209 14.2333 12.9209V15.9209ZM25.8738 19.0714L27.2104 19.7524L27.2104 19.7524L25.8738 19.0714ZM24.8337 20.1115L25.5147 21.448H25.5147L24.8337 20.1115ZM24.8337 3.97034L25.5147 2.63383L25.5147 2.63383L24.8337 3.97034ZM25.8738 5.01044L27.2104 4.32945L27.2104 4.32945L25.8738 5.01044ZM3.63275 3.97034L4.31374 5.30685H4.31374L3.63275 3.97034ZM2.59266 5.01044L3.92917 5.69143V5.69143L2.59266 5.01044ZM3.76999 24.4004L4.63537 25.6256L4.63553 25.6255L3.76999 24.4004ZM8.48542 21.0689L7.61988 19.8438L7.61988 19.8438L8.48542 21.0689ZM2.44067 24.5092L3.66986 23.6495H3.66986L2.44067 24.5092ZM3.64623 24.4744L2.97613 23.1324L2.97612 23.1324L3.64623 24.4744ZM2.84129 24.7568L2.62205 26.2407L2.62205 26.2407L2.84129 24.7568ZM3.72535 24.4312L2.91662 23.1679L2.91641 23.168L3.72535 24.4312ZM3.69432 24.4497L2.9638 23.1396L2.9637 23.1397L3.69432 24.4497ZM9.79251 20.4113L10.0677 21.8859L10.0677 21.8859L9.79251 20.4113ZM9.23582 20.5882L9.86189 21.9513L9.86189 21.9513L9.23582 20.5882ZM9.47325 9.66094V11.1609H18.9933V9.66094V8.16094H9.47325V9.66094ZM9.47325 14.4209V15.9209H14.2333V14.4209V12.9209H9.47325V14.4209ZM6.14125 3.71094V5.21094H22.3253V3.71094V2.21094H6.14125V3.71094ZM26.1333 7.51894H24.6333V16.5629H26.1333H27.6333V7.51894H26.1333ZM26.1333 16.5629H24.6333C24.6333 17.2542 24.6321 17.6823 24.6058 18.004C24.581 18.3081 24.5413 18.3826 24.5373 18.3904L25.8738 19.0714L27.2104 19.7524C27.4658 19.2512 27.5558 18.7379 27.5958 18.2483C27.6344 17.7761 27.6333 17.2046 27.6333 16.5629H26.1333ZM22.3253 20.3709V21.8709C22.967 21.8709 23.5385 21.8721 24.0106 21.8335C24.5002 21.7935 25.0135 21.7034 25.5147 21.448L24.8337 20.1115L24.1528 18.775C24.1449 18.779 24.0704 18.8186 23.7663 18.8435C23.4447 18.8698 23.0165 18.8709 22.3253 18.8709V20.3709ZM25.8738 19.0714L24.5373 18.3904C24.453 18.556 24.3183 18.6907 24.1528 18.775L24.8337 20.1115L25.5147 21.448C26.2448 21.0761 26.8384 20.4825 27.2104 19.7524L25.8738 19.0714ZM22.3253 3.71094V5.21094C23.0165 5.21094 23.4447 5.2121 23.7663 5.23838C24.0704 5.26323 24.1449 5.30285 24.1528 5.30685L24.8337 3.97034L25.5147 2.63383C25.0135 2.37843 24.5002 2.28835 24.0106 2.24834C23.5385 2.20977 22.967 2.21094 22.3253 2.21094V3.71094ZM26.1333 7.51894H27.6333C27.6333 6.87723 27.6344 6.30573 27.5958 5.83361C27.5558 5.34398 27.4658 4.83071 27.2104 4.32945L25.8738 5.01044L24.5373 5.69143C24.5413 5.69928 24.581 5.7738 24.6058 6.07791C24.6321 6.39953 24.6333 6.82772 24.6333 7.51894H26.1333ZM24.8337 3.97034L24.1528 5.30685C24.3183 5.39122 24.453 5.52584 24.5373 5.69143L25.8738 5.01044L27.2104 4.32945C26.8384 3.59939 26.2448 3.00582 25.5147 2.63383L24.8337 3.97034ZM6.14125 3.71094V2.21094C5.49954 2.21094 4.92804 2.20977 4.45592 2.24834C3.96629 2.28835 3.45303 2.37843 2.95177 2.63383L3.63275 3.97034L4.31374 5.30685C4.32159 5.30285 4.39611 5.26323 4.70022 5.23838C5.02184 5.2121 5.45004 5.21094 6.14125 5.21094V3.71094ZM2.33325 7.51894H3.83325C3.83325 6.82772 3.83442 6.39953 3.8607 6.07791C3.88554 5.7738 3.92516 5.69928 3.92917 5.69143L2.59266 5.01044L1.25615 4.32945C1.00074 4.83071 0.910664 5.34398 0.870659 5.83361C0.832085 6.30573 0.833252 6.87723 0.833252 7.51894H2.33325ZM3.63275 3.97034L2.95177 2.63383C2.2217 3.00582 1.62814 3.59939 1.25615 4.32945L2.59266 5.01044L3.92917 5.69143C4.01353 5.52584 4.14816 5.39122 4.31374 5.30685L3.63275 3.97034ZM22.3253 20.3709V18.8709H10.6828V20.3709V21.8709H22.3253V20.3709ZM3.76999 24.4004L4.63553 25.6255L9.35097 22.2939L8.48542 21.0689L7.61988 19.8438L2.90444 23.1753L3.76999 24.4004ZM2.33325 23.5906H0.833252C0.833252 23.8163 0.831757 24.089 0.852924 24.3203C0.873892 24.5494 0.931465 24.9686 1.21149 25.3689L2.44067 24.5092L3.66986 23.6495C3.75805 23.7756 3.80141 23.8917 3.82208 23.9648C3.8408 24.0311 3.84233 24.0676 3.84044 24.0469C3.83866 24.0274 3.83614 23.9853 3.83471 23.902C3.8333 23.8195 3.83325 23.7219 3.83325 23.5906H2.33325ZM3.64623 24.4744L2.97612 23.1324C2.87225 23.1843 2.79531 23.2223 2.73159 23.2524C2.66704 23.2828 2.63639 23.2952 2.62594 23.2992C2.61466 23.3034 2.65181 23.2881 2.72139 23.2758C2.79728 23.2623 2.91594 23.2516 3.06052 23.2729L2.84129 24.7568L2.62205 26.2407C3.08411 26.309 3.46809 26.1878 3.68382 26.1065C3.89801 26.0257 4.12888 25.91 4.31635 25.8164L3.64623 24.4744ZM2.44067 24.5092L1.21149 25.3689C1.54177 25.8412 2.05198 26.1565 2.62205 26.2407L2.84129 24.7568L3.06052 23.2729C3.30678 23.3093 3.52718 23.4455 3.66986 23.6495L2.44067 24.5092ZM2.33325 23.5906H3.83325V7.51894H2.33325H0.833252V23.5906H2.33325ZM3.76999 24.4004L2.90461 23.1752C2.89873 23.1793 2.89509 23.1819 2.89207 23.184C2.88911 23.1861 2.88858 23.1865 2.8893 23.186C2.89141 23.1845 2.90185 23.1773 2.91662 23.1679L3.72535 24.4312L4.53408 25.6945C4.58086 25.6645 4.6241 25.6336 4.63537 25.6256L3.76999 24.4004ZM3.64623 24.4744L4.31634 25.8164C4.32923 25.81 4.37647 25.7868 4.42494 25.7598L3.69432 24.4497L2.9637 23.1397C2.9709 23.1357 2.97737 23.1322 2.98278 23.1293C2.98792 23.1266 2.99147 23.1248 2.99249 23.1242C2.99335 23.1238 2.99285 23.1241 2.98969 23.1257C2.98646 23.1273 2.98251 23.1292 2.97613 23.1324L3.64623 24.4744ZM3.72535 24.4312L2.91641 23.168C2.93199 23.158 2.94773 23.1486 2.9638 23.1396L3.69432 24.4497L4.42484 25.7598C4.4619 25.7392 4.49848 25.7173 4.5343 25.6943L3.72535 24.4312ZM10.6828 20.3709V18.8709C10.2878 18.8709 9.9016 18.8651 9.51728 18.9368L9.79251 20.4113L10.0677 21.8859C10.1164 21.8768 10.1793 21.8709 10.6828 21.8709V20.3709ZM8.48542 21.0689L9.35097 22.2939C9.76213 22.0035 9.81695 21.9719 9.86189 21.9513L9.23582 20.5882L8.60976 19.2251C8.25448 19.3882 7.94243 19.6159 7.61988 19.8438L8.48542 21.0689ZM9.79251 20.4113L9.51729 18.9368C9.20409 18.9953 8.89928 19.0921 8.60975 19.2251L9.23582 20.5882L9.86189 21.9513C9.92756 21.9211 9.99669 21.8991 10.0677 21.8859L9.79251 20.4113Z" fill="#78C710"/>
</svg>
