<svg width="28" height="29" viewBox="0 0 28 29" fill="none" xmlns="http://www.w3.org/2000/svg">
<path d="M25.6666 25.0475C26.495 25.0475 27.1666 24.376 27.1666 23.5475C27.1666 22.7191 26.495 22.0475 25.6666 22.0475V25.0475ZM3.83325 4.88086C3.83325 4.05243 3.16168 3.38086 2.33325 3.38086C1.50482 3.38086 0.833252 4.05243 0.833252 4.88086H3.83325ZM4.8813 23.0389L5.56228 21.7024H5.56228L4.8813 23.0389ZM2.84189 20.9995L1.50538 21.6805L2.84189 20.9995ZM13.2457 11.1267L14.3064 10.066V10.066L13.2457 11.1267ZM17.0874 14.9684L16.0268 16.029L17.0874 14.9684ZM17.9124 14.9684L18.9731 16.029L18.9731 16.029L17.9124 14.9684ZM25.5606 9.44152C26.1464 8.85573 26.1464 7.90599 25.5606 7.3202C24.9748 6.73441 24.025 6.73441 23.4393 7.3202L25.5606 9.44152ZM5.93926 15.4869C5.35347 16.0727 5.35347 17.0224 5.93926 17.6082C6.52504 18.194 7.47479 18.194 8.06058 17.6082L5.93926 15.4869ZM12.4208 11.1267L13.4814 12.1873V12.1873L12.4208 11.1267ZM25.6666 23.5475V22.0475H9.79992V23.5475V25.0475H25.6666V23.5475ZM2.33325 16.0809H3.83325V4.88086H2.33325H0.833252V16.0809H2.33325ZM9.79992 23.5475V22.0475C8.46838 22.0475 7.55994 22.0464 6.85701 21.9889C6.17159 21.9329 5.81471 21.831 5.56228 21.7024L4.8813 23.0389L4.20031 24.3754C4.94614 24.7554 5.74178 24.9078 6.61271 24.979C7.46614 25.0487 8.51788 25.0475 9.79992 25.0475V23.5475ZM2.33325 16.0809H0.833252C0.833252 17.3629 0.832085 18.4146 0.901813 19.2681C0.972972 20.139 1.12536 20.9346 1.50538 21.6805L2.84189 20.9995L4.1784 20.3185C4.04978 20.0661 3.94785 19.7092 3.89185 19.0238C3.83442 18.3208 3.83325 17.4124 3.83325 16.0809H2.33325ZM4.8813 23.0389L5.56228 21.7024C4.96644 21.3988 4.482 20.9143 4.1784 20.3185L2.84189 20.9995L1.50538 21.6805C2.0966 22.8408 3.03998 23.7842 4.20031 24.3754L4.8813 23.0389ZM13.2457 11.1267L12.1851 12.1873L16.0268 16.029L17.0874 14.9684L18.1481 13.9077L14.3064 10.066L13.2457 11.1267ZM17.9124 14.9684L18.9731 16.029L25.5606 9.44152L24.4999 8.38086L23.4393 7.3202L16.8517 13.9077L17.9124 14.9684ZM6.99992 16.5475L8.06058 17.6082L13.4814 12.1873L12.4208 11.1267L11.3601 10.066L5.93926 15.4869L6.99992 16.5475ZM17.0874 14.9684L16.0268 16.029C16.8404 16.8426 18.1595 16.8426 18.9731 16.029L17.9124 14.9684L16.8517 13.9077C17.2097 13.5497 17.7901 13.5497 18.1481 13.9077L17.0874 14.9684ZM13.2457 11.1267L14.3064 10.066C13.4928 9.25242 12.1737 9.25242 11.3601 10.066L12.4208 11.1267L13.4814 12.1873C13.1235 12.5453 12.543 12.5453 12.1851 12.1873L13.2457 11.1267Z" fill="#78C710"/>
</svg>
