<svg width="30" height="30" viewBox="0 0 30 30" fill="none" xmlns="http://www.w3.org/2000/svg">
<path d="M15.0001 8.21419V15.2136M15.0001 15.2136L19.6667 18.7142M15.0001 15.2136C15.0001 15.214 14.9998 15.2134 15.0001 15.2136ZM2.49964 18.1309C2.28187 17.1939 2.16675 16.2175 2.16675 15.2142C2.16675 14.2109 2.28187 13.2345 2.49964 12.2975M12.6667 2.59246C13.4234 2.45348 14.2033 2.38086 15.0001 2.38086C22.0877 2.38086 27.8334 8.12654 27.8334 15.2142C27.8334 22.3018 22.0877 28.0475 15.0001 28.0475C14.2033 28.0475 13.4234 27.9749 12.6667 27.8359M8.58341 4.09773C6.83298 5.1103 5.34391 6.52445 4.24217 8.21419M4.24217 22.2142C5.34391 23.9039 6.83298 25.3181 8.58341 26.3307" stroke="#78C710" stroke-width="3" stroke-linecap="round"/>
</svg>
