<svg width="28" height="29" viewBox="0 0 28 29" fill="none" xmlns="http://www.w3.org/2000/svg">
<path d="M10.8889 3.63086L14.4963 7.23822C14.5443 7.28632 14.6223 7.28632 14.6704 7.23822L18.2778 3.63086M9.65741 19.6401L12.8767 16.1909C12.9148 16.15 12.9756 16.14 13.0249 16.1663L16.1319 17.8308C16.1856 17.8596 16.2523 17.8448 16.2887 17.7959L19.5093 13.4827M7.44074 7.3253H21.7259C23.1053 7.3253 23.795 7.3253 24.3219 7.59375C24.7853 7.82988 25.1621 8.20667 25.3982 8.6701C25.6667 9.19696 25.6667 9.88666 25.6667 11.266V21.8568C25.6667 23.2362 25.6667 23.9259 25.3982 24.4527C25.1621 24.9162 24.7853 25.2929 24.3219 25.5291C23.795 25.7975 23.1053 25.7975 21.7259 25.7975H7.44074C6.06135 25.7975 5.37166 25.7975 4.8448 25.5291C4.38136 25.2929 4.00458 24.9162 3.76845 24.4527C3.5 23.9259 3.5 23.2362 3.5 21.8568V11.266C3.5 9.88666 3.5 9.19696 3.76845 8.6701C4.00458 8.20667 4.38136 7.82988 4.8448 7.59375C5.37166 7.3253 6.06135 7.3253 7.44074 7.3253Z" stroke="#78C710" stroke-width="2.6" stroke-linecap="round"/>
</svg>
