<svg width="28" height="29" viewBox="0 0 28 29" fill="none" xmlns="http://www.w3.org/2000/svg">
<path d="M24.285 12.2512H4.8817M24.285 12.2512C24.3627 12.2512 24.421 12.3223 24.4057 12.3985L23.9426 14.7142M24.285 12.2512H24.4352M4.8817 12.2512C4.80399 12.2512 4.7457 12.3223 4.76094 12.3985L6.79846 22.5861C7.02871 23.7373 8.03954 24.566 9.21359 24.566H14.5833M4.8817 12.2512H4.73148M3.5 12.2512H4.73148M4.73148 12.2512L8.42593 4.8623M24.4352 12.2512H25.6667M24.4352 12.2512L20.7407 4.8623M25.6667 19.6401L20.9134 24.4297C20.733 24.6114 20.4406 24.6114 20.2603 24.4297L18.2778 22.4321" stroke="#78C710" stroke-width="2.4" stroke-linecap="round"/>
</svg>
