<svg width="72" height="39" viewBox="0 0 72 39" fill="none" xmlns="http://www.w3.org/2000/svg">
<path d="M6.02613 11.2637C6.05999 12.9733 6.61012 14.2767 7.67653 15.1738C8.726 16.1048 9.93629 16.5703 11.3074 16.5703C12.7293 16.5703 13.9649 16.1048 15.0144 15.1738C16.047 14.2767 16.5802 12.9733 16.614 11.2637C16.5802 9.50326 16.047 8.17448 15.0144 7.27734C13.9649 6.41406 12.7293 5.98242 11.3074 5.98242C9.93629 5.98242 8.726 6.41406 7.67653 7.27734C6.61012 8.17448 6.05999 9.50326 6.02613 11.2637ZM0.033947 27.1836C0.0678012 23.612 1.52353 20.8359 4.40113 18.8555C3.30087 17.8906 2.43759 16.7819 1.81129 15.5293C1.08343 14.3613 0.719494 12.9733 0.719494 11.3652C0.753348 8.28451 1.79436 5.73698 3.84254 3.72266C5.77223 1.72526 8.26051 0.709635 11.3074 0.675781C14.405 0.709635 16.9356 1.72526 18.8992 3.72266C20.8797 5.73698 21.8868 8.28451 21.9207 11.3652C21.9207 12.9733 21.5906 14.3613 20.9304 15.5293C20.2364 16.7819 19.3393 17.8906 18.239 18.8555C21.1166 20.8359 22.5724 23.612 22.6062 27.1836C22.5724 30.5182 21.4806 33.1842 19.3308 35.1816C17.1472 37.2298 14.4727 38.2708 11.3074 38.3047C8.15895 38.2708 5.52679 37.2298 3.4109 35.1816C1.19345 33.1842 0.0678012 30.5182 0.033947 27.1836ZM5.34059 27.1328C5.37444 28.8255 5.98382 30.2135 7.16871 31.2969C8.30283 32.431 9.68238 32.998 11.3074 32.998C12.9832 32.998 14.3881 32.431 15.5222 31.2969C16.6733 30.2135 17.2657 28.8255 17.2996 27.1328C17.2657 25.4062 16.6733 24.0013 15.5222 22.918C14.3881 21.8516 12.9832 21.3014 11.3074 21.2676C9.68238 21.3014 8.30283 21.8516 7.16871 22.918C5.98382 24.0013 5.37444 25.4062 5.34059 27.1328ZM41.4968 27.3359V11.6445C41.3953 7.9375 39.6602 6.05013 36.2918 5.98242C32.9063 6.05013 31.1798 7.9375 31.1121 11.6445V27.3359C31.1798 31.0768 32.9063 32.9642 36.2918 32.998C39.6602 32.9642 41.3953 31.0768 41.4968 27.3359ZM25.8054 27.6406V11.3145C25.8393 7.89518 26.9311 5.26302 29.0808 3.41797C31.0951 1.58984 33.4988 0.675781 36.2918 0.675781C39.1694 0.675781 41.6153 1.58984 43.6297 3.41797C45.6778 5.26302 46.7358 7.89518 46.8035 11.3145V27.6406C46.7358 31.043 45.6778 33.6667 43.6297 35.5117C41.6153 37.3398 39.1694 38.2708 36.2918 38.3047C33.4988 38.2708 31.0951 37.3398 29.0808 35.5117C26.9311 33.6667 25.8393 31.043 25.8054 27.6406ZM66.4812 27.3359V11.6445C66.3797 7.9375 64.6446 6.05013 61.2761 5.98242C57.8907 6.05013 56.1642 7.9375 56.0964 11.6445V27.3359C56.1642 31.0768 57.8907 32.9642 61.2761 32.998C64.6446 32.9642 66.3797 31.0768 66.4812 27.3359ZM50.7898 27.6406V11.3145C50.8237 7.89518 51.9155 5.26302 54.0652 3.41797C56.0795 1.58984 58.4832 0.675781 61.2761 0.675781C64.1537 0.675781 66.5997 1.58984 68.614 3.41797C70.6622 5.26302 71.7201 7.89518 71.7879 11.3145V27.6406C71.7201 31.043 70.6622 33.6667 68.614 35.5117C66.5997 37.3398 64.1537 38.2708 61.2761 38.3047C58.4832 38.2708 56.0795 37.3398 54.0652 35.5117C51.9155 33.6667 50.8237 31.043 50.7898 27.6406Z" fill="#0F2245"/>
</svg>
